/* XPM */
static char *_e10f91cbeea4c2cf0fd9c08ddaa2ec5uEjIpAxV2FaTLaUY[] = {
/* columns rows colors chars-per-pixel */
"50 50 90 1 ",
"  c #27323F",
". c #28343F",
"X c #3F633F",
"o c #46713F",
"O c #4C7E3F",
"+ c #273340",
"@ c #283540",
"# c #2A3B42",
"$ c #2C4344",
"% c #2D4944",
"& c #2B4549",
"* c #2C4B4D",
"= c #334B40",
"- c #2F5046",
"; c #2E514F",
": c #335344",
"> c #385640",
", c #315947",
"< c #3A5C42",
"1 c #31534A",
"2 c #325B4A",
"3 c #2F5653",
"4 c #2F5853",
"5 c #315B52",
"6 c #3F6341",
"7 c #3C6C47",
"8 c #34624A",
"9 c #39664D",
"0 c #366C4B",
"q c #3D6E4D",
"w c #37704C",
"e c #39744D",
"r c #3B7D4F",
"t c #346351",
"y c #386550",
"u c #366C51",
"i c #397450",
"p c #3A7C50",
"a c #406640",
"s c #436D42",
"d c #457141",
"f c #477944",
"g c #4A7C42",
"h c #42764C",
"j c #437A4A",
"k c #427D49",
"l c #43784C",
"z c #427C4C",
"x c #528A3F",
"c c #538B3F",
"v c #57933F",
"b c #58963F",
"n c #5D9D3F",
"m c #5D9E3F",
"M c #5DA03F",
"N c #60A63F",
"B c #63AB3F",
"V c #63AC3F",
"C c #64AC3F",
"Z c #65AE3F",
"A c #65B03F",
"S c #3F814D",
"D c #4C8143",
"F c #4A8545",
"G c #4D8445",
"H c #4F8842",
"J c #4C8A45",
"K c #43864C",
"L c #498149",
"P c #468B4B",
"I c #4A8D49",
"U c #518740",
"Y c #538C40",
"T c #508D46",
"R c #4F9447",
"E c #4B9049",
"W c #569240",
"Q c #549345",
"! c #509647",
"~ c #559445",
"^ c #579844",
"/ c #549A45",
"( c #599841",
") c #599C43",
"_ c #599E43",
"` c #5BA242",
"' c #5DA140",
"] c #5EA441",
"[ c #61A740",
"{ c #61A840",
/* pixels */
"@@@@@@*44444urrrrr0@@$rre#@@;44444JZBBBZO+@@@@$rrr",
"@@@@@@*44444urrrrr0@@$rre#@@;44444JZBBBZO+@@@@$rrr",
"@@@@@@*44444urrrrr0#@$ere$##;44444JZBBBZO+@@##$rrr",
"@@@*33444&##2rrrrrrw08$$=YbW944444JZBBBZO++:bb(`''",
"@@@344444$..,rrrrrrrrw#+$MZ{944444JZBBBZO++>BZZZZZ",
"@@@344444$@@,rrrrrrrr0#@$mZ[944444JZBBBZO++>BBBBBB",
"000544444$@@#%%2rritt2@@$mVB^QQ944yqqTZZO++>BBBBBB",
"rrr544444$@@@@ -rri443@@$mVBZZVq44443LZZO++>BBBBBB",
"rrr544444$++@@+-rri44;@+$mVBBBBq44444LZZO++>BBBZZZ",
"rrr544&$$6OOd880rri444**1'VBBBBq44444eIIk88hBVma66",
"rrr544#.+gAZ!prrrri44443t'VBBBBq44444urrrrpPBZb#++",
"rrr544#@+OZZRrrrrri44444t]ZZBBBq34444urrrrrPBZb#@@",
"rrruuu$@+OZZRrrrrri444445sooMVBTLL944urriuuzBZb#@@",
"rrrrrr%@+OZZRrrrrri444443@+#bZBZZZk44urru44qBZb#@@",
"rrrrrr% +OZZRrrrrri444443#.#bZBBBZl34urru44qZZb#@@",
"uuurrr2--HZZRrrw889ttt444&$$(ZBBBZs**2uut449gOo#@@",
"444irrrrr^ZZRrr8++%rri544445)ZBBBZX+.&44444*+++@@@",
"445irrrrr^ZZRpp8++%rri544445)ZZVBZ6+@&44444*@@@@@@",
"445irrrrrFxxJPPh>><008444445DxxMVZ6+@&44444*@@@###",
"445irrrrr:@+dZBBBZx@@#444444#@@xZZ6+@&44444*@@#444",
"445irrrrr-.+oZBBBZx@@#444444#@@xZZX+.&44444*@@#444",
"445rKKrrr1##dZBBBZx@@#555444#@@Obb<##&444;3&@@#444",
"445({{Prrt44LZBBBZx@@$rri544#@@###&44444*@@@@@#444",
"445(ZBPrrt44LZVBBZx@@$rrp544#@@@@@*44444*@@@@@#444",
"ttt)ZBKeet44j''[BZx@@$rSr555$##@@@*44444*@@@###444",
"'''BBB<##*445t5jZZx@+=']`rpreee$@@*44444*@+#334444",
"VVVBBB>++*44443hZZx@+=NZ]Srrrrr%@@*44444*@+#444444",
"BBBBBB<##*44444hNNU#@=NV]Srrrrr%@@*44444&##$444444",
"BBBBBBmbbq444441==:00k{B]Srrt55$@@*44&##<bbG444444",
"BBBBBBZZZk44444*++%rrK{B]Srr544#@@*44&.+XZZ~444444",
"BBBBBBBBZk44444*@@%rrK{B]Srr544#@@*44&@+6ZZ~444444",
"BBNa>>vZB)Q~h443**9))`BV':%%444;**&##6xxbBZ~44tQ~~",
"BBN=++xZBZZZL44443qBZZBVm$+@;44444$.+oZZZBZ~449{ZZ",
"BBN=+@xZBBBZL44444qBBBBVm$@@;44444$@+sZBBVZ~549[BB",
"BBN788^ZBBBZL44444tIIRBVm$@@;44444$@+dZV`IEk$$:NBB",
"BB{Kpr)ZBBBZL44444trpK{Zm$@@;44444$@+sZZ^pp0@+=NBB",
"ZZBKrr`ZZVBZL34444trrK{ZM$@@344444$.+oZZ^rr0@+=NBB",
"RRRSrrhosbZB~kLe44trrrdos#..&&&344*&&fZZ^rrw227NBB",
"rrrrrr$++OZBVZZT44trr0@++@@.@@@*44443LZZ^rrrrpK{BB",
"rrrrrr% +OZBBBZJ44trr0@+@@@@@@@*34444LZZ^rrrrrK{ZZ",
"888rrr2--HZBBBZQtturre:-%#@@@@@9hht44LZZ^rrrrrrgOO",
"@@#wrrrrr^ZBBBZ^rrrrrrrre#@@@@@xZZk44LZZ^rrrrr0@++",
"@@#wrrrrr^ZZVBZ^rrrrrrrre#@@@@@xZZh33LZZ^rrrrr0@@@",
"@@#wrrrrrI~Q)BZQ000rrrrre#@@@@@xZVFqqgxxg000rrw%%%",
"@@#0rrrrrt44LVVO@@%rrrrre#@@@@@xZBBBZd+@@@@%rrrrrr",
"@@#wrrrrrt44LZZO+@%rrrrre#@@@@@xZBBBZd+@@@@%rrrrrr",
"@@#8wweiit44j]]f+@$00wrre#@@###YZBBBZd+@@@@%rrrrrr",
"@@@###;55444uSS8@@@##$rre#@#*44QZBBBZd+@@@@%rrrrrr",
"@@@@@@*44444urr8@@@@@$rre#@@344~ZBBBZd+@@@@%rrrrrr",
"@@@@@@*44444urr8@@@@@$rre#@@;44~ZBBBZd+@@@@%rrrrrr"
};
