/* XPM */
static char *_64d4e73baa04b0dda1dfb49ed8b1279SlgU4LLpMJIBJeCe[] = {
/* columns rows colors chars-per-pixel */
"30 30 153 2 ",
"   c #020102",
".  c #0B0000",
"X  c #0A0907",
"o  c #00020B",
"O  c #0B0708",
"+  c #070908",
"@  c #0B0B0B",
"#  c #130200",
"$  c #0E100D",
"%  c #12110F",
"&  c #080B12",
"*  c #0E1116",
"=  c #141312",
"-  c #1A1613",
";  c #1A1915",
":  c #131919",
">  c #1B1B1A",
",  c #201C1B",
"<  c #23221E",
"1  c #141821",
"2  c #1D2121",
"3  c #232323",
"4  c #242528",
"5  c #2B2B2B",
"6  c #322F2E",
"7  c #392E28",
"8  c #343334",
"9  c #383637",
"0  c #3D3C3A",
"q  c #4C3527",
"w  c #433938",
"e  c #42413F",
"r  c #51443C",
"t  c #5A4739",
"y  c #624736",
"u  c #3F444A",
"i  c #444343",
"p  c #4D4946",
"a  c #42464A",
"s  c #4C4B4B",
"d  c #514E4E",
"f  c #59504C",
"g  c #4B4C51",
"h  c #514F50",
"j  c #545353",
"k  c #5D5351",
"l  c #565658",
"z  c #5E5E5E",
"x  c #6D5F5C",
"c  c #7A6459",
"v  c #5F6267",
"b  c #656464",
"n  c #6C6B6B",
"m  c #776E67",
"M  c #706F6D",
"N  c #7D726B",
"B  c #747474",
"V  c #7A7774",
"C  c #7B767A",
"Z  c #77787D",
"A  c #7A7A7A",
"S  c #83675B",
"D  c #866C5C",
"F  c #8C6F5D",
"G  c #967059",
"H  c #80716E",
"J  c #9D7963",
"K  c #9A7D6B",
"L  c #8D7C75",
"P  c #837E7B",
"I  c #A1826D",
"U  c #A58471",
"Y  c #A38B7F",
"T  c #7A7F85",
"R  c #848484",
"E  c #898383",
"W  c #858688",
"Q  c #8E8D8D",
"!  c #908F8D",
"~  c #92918F",
"^  c #8C8B90",
"/  c #998F90",
"(  c #9C979B",
")  c #9D9C9C",
"_  c #AF9B94",
"`  c #A49F9E",
"'  c #AA9C99",
"]  c #AAA29F",
"[  c #B0A19E",
"{  c #A5A5A5",
"}  c #AEABA6",
"|  c #ABACAC",
" . c #A7B0AF",
".. c #B0B2AF",
"X. c #AEB2B1",
"o. c #B2B2B2",
"O. c #BCB9B4",
"+. c #BEBDBB",
"@. c #D5B5A6",
"#. c #D6BCAD",
"$. c #CCB9B3",
"%. c #DAC6BD",
"&. c #B6BBC1",
"*. c #BBBCC1",
"=. c #C5C4C2",
"-. c #CFC5C4",
";. c #CBC6CA",
":. c #CECCCC",
">. c #D0D0CE",
",. c #CCCFD4",
"<. c #CFD0D5",
"1. c #CFD4DA",
"2. c #D5D4D5",
"3. c #D6D7D9",
"4. c #D9D7D8",
"5. c #DCDCDC",
"6. c #ECD4CA",
"7. c #EEDCD8",
"8. c #E1DFE0",
"9. c #E4E4E4",
"0. c #E8E6E7",
"q. c #EAE9E7",
"w. c #E3E6EB",
"e. c #E3E8EE",
"r. c #EDECEC",
"t. c #F3EDEB",
"y. c #F4F2EE",
"u. c #FBF2ED",
"i. c #F1EFF0",
"p. c #EFF4F3",
"a. c #EFF4F8",
"s. c #F6F6F6",
"d. c #F9F5F4",
"f. c #F7F8F4",
"g. c #FCF9F5",
"h. c #F6F6F9",
"j. c #F9F7F8",
"k. c #F5FAFC",
"l. c #FDFDFB",
"z. c #FFFFFA",
"x. c #FEFDF8",
"c. c #FAFBFD",
"v. c #F9F9FE",
"b. c #F9FAFE",
"n. c #FDFBFD",
"m. c #FBFCFF",
"M. c #F9FFFF",
"N. c #FFFFFD",
"B. c #FFFDFE",
"V. c #FFFEFF",
"C. c #FEFFFF",
"Z. c #FCFCFD",
"A. c #FBFBFB",
/* pixels */
"n.s.v.h.b.k.e.m.y.x.g.g.m.p.m.k.A.d.r.q.s.i.m.s.s.s.s.s.h.h.",
"s.s.m.v.h.b.m.s.s.O.} | ..X. .| | V V ! 9.m.A.d.s.s.s.s.h.h.",
"h.h.h.v.h.b.3.W s < - ; > 2 : 2 < = % p n 2.d.n.s.s.s.s.h.h.",
"m.h.s.h.m.s.Q @ = ; - ; + $ > + ; ; > = + h d.j.s.s.s.s.h.h.",
"s.s.A.s.v.s.n   > @ X X     =   @ @ > = ; 9 t.d.s.s.s.s.h.h.",
"s.s.x.s.A.A.b @ @       6 ,   i @         9 4.m.s.s.s.s.h.h.",
"j.s.s.f.j.A.n     = i d E f w ] =   + = @ 8 0.m.s.s.s.s.h.h.",
"f.s.s.x.y.s.A     4 W ( / k H ' P 0 = B = 9 r.s.s.s.s.s.h.h.",
"k.s.s.s.g.s.>.l 4 W ^ ;./ [ $.L -.~ Q ) 3 h r.m.s.s.s.s.h.h.",
"s.s.j.d.y.y.m.4.a ,.<.{ -.7.6.%.` +.r.j b 9.j.s.s.s.s.s.h.h.",
"k.p.s.y.x.g.A.s.v a *.s.t._ S Y u.:.M 0 4.A.m.s.s.s.s.s.h.h.",
"h.k.x.t.g.d.y.s.w.T g C x c @.#.N i e =.r.A.s.A.s.s.s.s.h.h.",
"a.k.m.y.g.d.d.v.e.&.Z s . q U F 7   > 6 ` i.A.s.s.j.s.j.h.h.",
"b.s.s.d.g.y.g.h.1.1 &   . D J I N   @   > :.j.A.s.s.s.j.h.h.",
"k.k.A.g.t.t.m.q.u o     # y G I r %     @ s 8.s.s.s.f.s.h.h.",
"k.h.s.g.x.x.r.W *     O . t K D f         @ Q s.s.s.s.s.h.h.",
"h.s.s.m.s.y.A.p     +     k m V p   +     + p k.s.s.s.s.A.s.",
"s.s.s.s.A.m.2.i         + s B C j +       @ w 4.s.s.s.s.h.s.",
"s.s.m.s.A.s.B           @ s A B s +         + A s.s.s.s.s.s.",
"s.s.A.s.x.A.b +   @     + s B B p             n s.s.s.s.s.s.",
"s.A.s.A.A.A.n         + @ p B R s @       +   B s.s.s.A.s.s.",
"s.m.A.s.s.s.Q @           > j i >     @     = W s.s.s.s.s.s.",
"A.A.s.r.m.m.9.{ W W z @   + b ;       z R R | A.s.s.s.s.s.s.",
"s.r.m.s.m.q.A.A.A.m.{ +   = { 3   +   | m.A.A.s.s.s.s.s.s.s.",
"s.s.s.s.s.s.s.s.A.s.|     ; ) 4   +   { A.A.s.s.s.s.s.s.k.s.",
"s.s.s.s.s.s.s.s.s.m.| + + @ ) 4       | m.s.j.s.s.s.s.s.s.s.",
"s.s.s.s.s.s.s.s.A.m.{     @ o.;   @   | m.s.m.s.s.s.s.s.s.s.",
"s.s.s.s.s.s.s.s.s.s.{   @ @ { 5       { A.s.s.A.s.s.s.s.s.s.",
"s.s.s.s.s.s.s.s.s.R z 5 3 9 o.i 5 8 5 j Q 9.m.s.s.s.s.s.s.s.",
"s.s.s.s.s.s.s.s.r.5.4.9.9.5.s.9.9.4.5.5.5.A.s.m.s.s.s.s.s.s."
};
