/* XPM */
static char *cc1402fbf5a9485690b6caa1ff22dd38E7PRe0JOZUjN641i[] = {
/* columns rows colors chars-per-pixel */
"32 32 132 2 ",
"   c None",
".  c #391E29",
"X  c #3D232E",
"o  c #3F2631",
"O  c #412A36",
"+  c #462F3A",
"@  c #45303D",
"#  c #4A343F",
"$  c #453442",
"%  c #4A3745",
"&  c #473847",
"*  c #4C3947",
"=  c #4D3D4B",
"-  c #4F404F",
";  c #50404F",
":  c #4B4356",
">  c #4F485B",
",  c #544451",
"<  c #5A4A56",
"1  c #5E4E5A",
"2  c #604F5C",
"3  c #63535D",
"4  c #554D60",
"5  c #535167",
"6  c #545268",
"7  c #5F5869",
"8  c #5A5F78",
"9  c #655660",
"0  c #665964",
"q  c #625969",
"w  c #5B627C",
"e  c #6E6775",
"r  c #6E6A77",
"t  c #686679",
"y  c #6A697C",
"u  c #7A717D",
"i  c #5D6781",
"p  c #5F6882",
"a  c #626981",
"s  c #616E8B",
"d  c #62718D",
"f  c #6C738A",
"g  c #7F7D86",
"h  c #72788F",
"j  c #637391",
"k  c #6C7995",
"l  c #6E7F9B",
"z  c #757C92",
"x  c #787E94",
"c  c #798096",
"v  c #7D879D",
"b  c #7E889D",
"n  c #7686A1",
"m  c #7887A2",
"M  c #7D8BA6",
"N  c #7F8EA9",
"B  c #41C2E3",
"V  c #6AD2EC",
"C  c #73D6EF",
"Z  c #8B8795",
"A  c #84899D",
"S  c #808FA9",
"D  c #8B93A7",
"F  c #8495AD",
"G  c #8A96AD",
"H  c #8598AF",
"J  c #9295A6",
"K  c #9296A8",
"L  c #999DAC",
"P  c #8797B0",
"I  c #8598B0",
"U  c #8B9BB4",
"Y  c #8C9EB8",
"T  c #919FB6",
"R  c #9A9FB1",
"E  c #99A0A9",
"W  c #98A0B2",
"Q  c #94A4BC",
"!  c #98A7BD",
"~  c #99A8BF",
"^  c #A3A5B5",
"/  c #ADAFBB",
"(  c #9BAAC1",
")  c #A1AFC4",
"_  c #A4B2C7",
"`  c #ABB1C1",
"'  c #ACB9C2",
"]  c #A6B5CA",
"[  c #AAB6CB",
"{  c #AFBDCF",
"}  c #ADB9CD",
"|  c #B2BCCE",
" . c #AFBCD0",
".. c #B0BCD0",
"X. c #B3BED0",
"o. c #B3BFD2",
"O. c #B5C5CD",
"+. c #B4C1D3",
"@. c #B5C1D4",
"#. c #B4C1D4",
"$. c #B5C2D4",
"%. c #B6C2D5",
"&. c #B6C3D6",
"*. c #B7C4D7",
"=. c #B7C4D6",
"-. c #BAC6D5",
";. c #B9CCD5",
":. c #B8C5D8",
">. c #B8C6D9",
",. c #B9C7DA",
"<. c #BDC8D8",
"1. c #BECAD9",
"2. c #BED5E0",
"3. c #B7EDFB",
"4. c #BFF1FE",
"5. c #C2D0DF",
"6. c #C4D0DF",
"7. c #CDD1D8",
"8. c #C1D9E6",
"9. c #D6E0E9",
"0. c #D7E2EC",
"q. c #D9E5EF",
"w. c #D9E5F0",
"e. c #DAE6F0",
"r. c #DBE6F0",
"t. c #DCE7F0",
"y. c #DCE8F2",
"u. c #D2F9FF",
"i. c #DEFEFF",
"p. c #E2ECF5",
"a. c #E3EDF6",
"s. c #E2FFFF",
/* pixels */
"                            o o o o o o                         ",
"                            o o X X o o                         ",
"                        o o o o X X o o o o o o o o             ",
"                        o o X + , , + X X X X o o o             ",
"                    o o o X X , Z Z , X X X X X o o o o         ",
"                    o o o O * e ` ` e = ; - = $ O o o o         ",
"    o o o o o o o o o o X * y G o.| D z x h a 5 $ X o o         ",
"    o o X X X X X X X X X = h Q &.&.( U U U U z ; X X o         ",
"o o o o X X X X X X X X X & a P o.&.( U U ( 5./ 3 X X o o o     ",
"o o o @ , 2 1 2 1 1 1 1 1 q f S _ [ Q P P ] y.7.u % O X o o     ",
"o X X , Z ^ ^ ^ ^ ^ ^ ^ ^ R G F Q Q U P P _ r.9.W t % X X o o o ",
"o X X 1 L ,.,.*.&.&.&.*.*. .) ~ ! ! ~ ! Q { t.r.[ v 7 * O o o o ",
"o X X , A ( ( ( ( ( ( ( ( )  .&.&.&.&.+.+.6.a.q.] F v y * X o o ",
"o X X , x U U P P P P P P Q _ } } [ [ [ [ 1.a.q._ U Y c , X X o ",
"o X X , x U U P P P P U U P S M M M M m m ! 0.r.] U U x , X X o ",
"o X X , x U U U U U U U U F l j j k n M M T -.1.( U Q A , X X o ",
"o X X , x U U U U U U U U F l j j n ~ } } ) U F P Q  .L 1 X X o ",
"o X X , x U U P P P P U U F l j j n ~ } } ( F S T ) } K < X X o ",
"o X X , x U U P P P P U U F l j j k n M M F ( } +.[ U f = X X o ",
"o X X , A ( ( ~ ~ ~ ~ ~ ~ Q F M M M M M M G ) } { ! k 5 $ X X X ",
"o X X < L ,.*.&.&.&.&.&.&.o.} } } } } } } ) G M N z 4 $ O X X X ",
"o X X < J  .} } } } } } } } } } } } } } | ( n d i 6 $ X X @ 1 0 ",
"o X X = f N N M M M M M M M M M M M M M N M l p > $ O X . < E ;.",
"o X X & w j j j j j j j j j j j j j j s w 8 w 5 @ . X + < g ;.s.",
"o X X & 8 j j j j j j j j j j j j j j w : $ $ @ o . . < L ;.    ",
"X # 1 r b I H F F F F F F F F F F H I v e 3 9 0 0 0 0 g ;.s.    ",
"    ' ;.2.8.8.8.8.8.8.8.8.8.8.8.8.8.8.2.;.O.O.O.O.O.O.;.        ",
"    s.u.4.3.3.3.3.3.3.3.3.3.3.3.3.3.3.3.3.3.3.4.u.i.i.i.        ",
"        C V V V V V V V V V V V V V V V V V V C                 ",
"        B B B B B B B B B B B B B B B B B B B B                 ",
"                                                                ",
"                                                                "