/* XPM */
static char *_0f9b32551564e60cc85a0e84a905a826egq1eeYeDwPZhKB[] = {
/* columns rows colors chars-per-pixel */
"50 50 190 2 ",
"   c None",
".  c #390F09",
"X  c #3A231E",
"o  c #1A2D33",
"O  c #143237",
"+  c #2B2C28",
"@  c #383031",
"#  c #4C1A0D",
"$  c #511A0C",
"%  c #481E16",
"&  c #4E240E",
"*  c #5A2D0E",
"=  c #5D250C",
"-  c #523018",
";  c #642E0E",
":  c #703B0F",
">  c #622D14",
",  c #6A3A12",
"<  c #7F322D",
"1  c #753B39",
"2  c #764514",
"3  c #784816",
"4  c #7D561E",
"5  c #75521F",
"6  c #6B491A",
"7  c #404035",
"8  c #7C5421",
"9  c #7C4B3E",
"0  c #3D1954",
"q  c #2A3D43",
"w  c #40374F",
"e  c #4A2E5B",
"r  c #2B4646",
"t  c #45494D",
"y  c #7C4D4C",
"u  c #755459",
"i  c #7F7653",
"p  c #5A4163",
"a  c #6A5E6B",
"s  c #725E67",
"d  c #695870",
"f  c #705E75",
"g  c #667368",
"h  c #756874",
"j  c #842D2C",
"k  c #85342D",
"l  c #88362E",
"z  c #87392F",
"x  c #8A3A2E",
"c  c #842F30",
"v  c #863433",
"b  c #8A3432",
"n  c #843B33",
"m  c #8B3D32",
"M  c #8C3C3C",
"N  c #873739",
"B  c #805219",
"V  c #855B1A",
"C  c #895C19",
"Z  c #865316",
"A  c #8E621C",
"S  c #90651B",
"D  c #96691C",
"F  c #98651B",
"G  c #A1701D",
"H  c #8F412B",
"J  c #92442E",
"K  c #964B2D",
"L  c #8A5E21",
"P  c #9C542F",
"I  c #97502F",
"U  c #864236",
"Y  c #8E4232",
"T  c #8E423B",
"R  c #8A4E35",
"E  c #914533",
"W  c #954A34",
"Q  c #9A4D35",
"!  c #914B3C",
"~  c #94433E",
"^  c #9B5235",
"/  c #9D5A39",
"(  c #9A5537",
")  c #A35435",
"_  c #A25D33",
"`  c #A15D3A",
"'  c #A85E39",
"]  c #956623",
"[  c #9D6C21",
"{  c #956A22",
"}  c #9C6236",
"|  c #A17024",
" . c #A5653B",
".. c #AB633A",
"X. c #AA6A3B",
"o. c #AB6636",
"O. c #B26B3B",
"+. c #B96F3C",
"@. c #AA723E",
"#. c #B2723D",
"$. c #B9753C",
"%. c #B77A3E",
"&. c #C67B3C",
"*. c #C67536",
"=. c #8B3C43",
"-. c #8D3D49",
";. c #923F40",
":. c #944344",
">. c #96494A",
",. c #845044",
"<. c #9C584E",
"1. c #9D4F5B",
"2. c #805452",
"3. c #9A5853",
"4. c #976244",
"5. c #95695A",
"6. c #AD6A42",
"7. c #B26D47",
"8. c #AC7440",
"9. c #B37642",
"0. c #B57A43",
"q. c #BB7B42",
"w. c #B77C4A",
"e. c #B97947",
"r. c #AB6F57",
"t. c #AD7C5C",
"y. c #805F65",
"u. c #896966",
"i. c #877576",
"p. c #C27D44",
"a. c #7D857A",
"s. c #C2843F",
"d. c #D3883E",
"f. c #BC8244",
"g. c #BB834B",
"h. c #B88548",
"j. c #A98055",
"k. c #BA8A55",
"l. c #818A7B",
"z. c #97837D",
"x. c #A1816C",
"c. c #AF9378",
"v. c #A68874",
"b. c #C38544",
"n. c #C88545",
"m. c #C48846",
"M. c #CA8A46",
"N. c #C48D48",
"B. c #CD8D48",
"V. c #C5834A",
"C. c #D88D43",
"Z. c #D18D46",
"A. c #CC934B",
"S. c #CF994C",
"D. c #C6924A",
"F. c #D59145",
"G. c #D39349",
"H. c #D39A4C",
"J. c #DA9D4C",
"K. c #DD9247",
"L. c #C38850",
"P. c #CB9D54",
"I. c #D29C50",
"U. c #E49E4A",
"Y. c #DDA14E",
"T. c #D6A14F",
"R. c #D4A352",
"E. c #DCAA54",
"W. c #DAA651",
"Q. c #E3A54F",
"!. c #ECAB4E",
"~. c #E4A752",
"^. c #EBAC51",
"/. c #E1AB53",
"(. c #E5B255",
"). c #EBB354",
"_. c #EBB95B",
"`. c #F1B354",
"'. c #F4BA56",
"]. c #F4BD5A",
"[. c #F6C15B",
"{. c #FCCA5D",
"}. c #FAC259",
"|. c #FDD25F",
" X c #FECE60",
".X c #847E84",
"XX c #9C8D8B",
"oX c #999C8A",
"OX c #A69489",
"+X c #9DA691",
/* pixels */
"                                                                                            { G F Z ",
"                                                                                          { | [ Z : ",
"                                                                                      A D [ ] Z ; $ ",
"                                                                                  4 S D C 2 ; $ #   ",
"                                                                                4 S A 2 * #         ",
"                                                                              8 V B , &             ",
"                                                                        g l.oXi 6 *                 ",
"                                                                      p a.+Xa w +                   ",
"                                                                    t t g l.e 0 O                   ",
"                                                                    7 - % X o O r                   ",
"                                                                    5 B = . + q                     ",
"                                                                  V V , % @ @                       ",
"                                                      k.    k.  L C 3 >                             ",
"                                                g.k.P.A.6.g.D.h.] 2 >                               ",
"                                              0.M.M._./.M.E.R.h.} @.                                ",
"                                            6.O.F.Y.].^.~._.E.0.w.h.r.                              ",
"                                            7.O.%.D.H.A.I.W.A.q.0.` <.                              ",
"                                              OXv.c.j.j.8.0.0.9./ E >.                              ",
"                                      g.w.w.t.5.u.i.OXOXx.4./ ^ m m T                               ",
"                                V.M.B.p...) ) J x R 9 u.XXz.,.n x x T                               ",
"                              n.F.J.J.G.n.p...Q 9.9.( k 1 i.i.y z Y >.                              ",
"                          p.&.C.!.^.~.Y.J.M.O.q.m.0.^ E < u .Xu ! 3.                                ",
"                        p.*.d.^.'.`.).).Q.n.M.H.m.#.^ W Y y h s y.                                  ",
"                      L.&.d.!.}.{.}.'.).F.G.Y.A.q...^ W W U s f d                                   ",
"                    w.$.&.Q.}. X|.|.{.U.F.(.J.n.O.` Q E ^ x y h                                     ",
"                    e.+.F.).{.{.|.|.`.K.].).A.$.' ^ W W ^ l N u                                     ",
"                    0.m.J.).].[.{.'.C.`.[.J.q...^ Q W ( W l b                                       ",
"                  w.9.m.H.E.(.(.).Z.F.].Q.p...) Q Q ^ W Y x ~                                       ",
"                  w.0.s.B.T.W.E.A.q.J.Y.p...) Q W ^ W x m m >.                                      ",
"                    $.$.b.S.S.S.q.b.H.p...^ Q W Q W m l E ~ >.                                      ",
"                    o.o.f.N.N.f.#.m.q...Q W W W W Y l l W :.>.                                      ",
"                    ^ _ q.f.f.X.0.q...Q E E E W Y x j x ! :.                                        ",
"                    K _ #.0.#. .0.X.( E Y E E Y m j j M N M                                         ",
"                    J P o.#. .X.X./ W E E E Y m j v =.N c =.                                        ",
"                      P _ o./ X.` W Y E E m m b j v c j                                             ",
"                      ^ P _ ^  .^ Y E W Y m m =.                                                    ",
"                      I K ^ E ( Y m Y E m m m 1.                                                    ",
"                        J W x W m x Y Y m m l >.                                                    ",
"                        x H x x m l m Y x x l v                                                     ",
"                          l x j l l k m x l l j ;.-.                                                ",
"                          < l k j l k k l l l k j :.        n                                       ",
"                              l j j k k k l k k j j M N n n U                                       ",
"                                  j j k k k k l l k j k v n                                         ",
"                                          k k k l z n 1                                             ",
"                                                                                                    ",
"                                                                                                    ",
"                                                                                                    ",
"                                                                                                    ",
"                                                                                                    ",
"                                                                                                    "
};
