/* XPM */
static char *result[] = {
/* columns rows colors chars-per-pixel */
"50 50 181 2 ",
"   c #626D69",
".  c #7C766B",
"X  c #BC100F",
"o  c #A10410",
"O  c #AE0D1D",
"+  c #B80F10",
"@  c #AC1A1C",
"#  c #BA1C1B",
"$  c #BB2618",
"%  c #910B2E",
"&  c #961E32",
"*  c #B11826",
"=  c #BF1F24",
"-  c #B61C2A",
";  c #A21339",
":  c #BD2921",
">  c #BC3322",
",  c #B23030",
"<  c #C30E0B",
"1  c #CB0E08",
"2  c #CC160F",
"3  c #C41018",
"4  c #C71A19",
"5  c #D31413",
"6  c #D01917",
"7  c #DD1B1A",
"8  c #C62A1D",
"9  c #D3251B",
"0  c #D32013",
"q  c #CE1F22",
"w  c #C02729",
"e  c #CF222E",
"r  c #C72C2F",
"t  c #C52223",
"y  c #C43223",
"u  c #C43B36",
"i  c #92432E",
"p  c #A54327",
"a  c #B5482A",
"s  c #BB4C29",
"d  c #B7512B",
"f  c #A84135",
"g  c #A74E35",
"h  c #A2543C",
"j  c #B75631",
"k  c #B15836",
"l  c #C2532A",
"z  c #C8562D",
"x  c #D15D2F",
"c  c #D64334",
"v  c #C35B32",
"b  c #C85B31",
"n  c #DF5832",
"m  c #CD6235",
"M  c #D76934",
"N  c #DE6A33",
"B  c #DB6735",
"V  c #C97338",
"C  c #DF7136",
"Z  c #DC733D",
"A  c #D37133",
"S  c #E16E34",
"D  c #E17135",
"F  c #E97533",
"G  c #EB7D31",
"H  c #E67A3A",
"J  c #961948",
"K  c #A32847",
"L  c #AC3849",
"P  c #B73C48",
"I  c #BC3E42",
"U  c #925640",
"Y  c #B54D45",
"T  c #A25B42",
"R  c #AB5144",
"E  c #BA5053",
"W  c #8F6249",
"Q  c #AB6649",
"!  c #B36242",
"~  c #A8764F",
"^  c #A56C51",
"/  c #B47A5A",
"(  c #C35B57",
")  c #CA6E45",
"_  c #D57F46",
"`  c #DD7D49",
"'  c #DE7B44",
"]  c #D17A50",
"[  c #E27A45",
"{  c #C16765",
"}  c #EB8333",
"|  c #ED8B37",
" . c #E6803E",
".. c #EC833B",
"X. c #ED8D39",
"o. c #F08F37",
"O. c #EF913F",
"+. c #F1933B",
"@. c #F39A3E",
"#. c #8A897F",
"$. c #958A7C",
"%. c #A78E6E",
"&. c #B88967",
"*. c #B58164",
"=. c #A0927E",
"-. c #D68A4E",
";. c #D29949",
":. c #DF8352",
">. c #D4935A",
",. c #ED8A41",
"<. c #E98748",
"1. c #E58646",
"2. c #EE9146",
"3. c #EA964B",
"4. c #F49C43",
"5. c #F19341",
"6. c #E08C5B",
"7. c #EE9756",
"8. c #E7915D",
"9. c #E59F52",
"0. c #EAA147",
"q. c #F4A243",
"w. c #F6A845",
"e. c #F9AE45",
"r. c #F5A24A",
"t. c #F5AC4D",
"y. c #F9B447",
"u. c #F9B44B",
"i. c #F7BA4A",
"p. c #EDAA54",
"a. c #F4AA53",
"s. c #F5A75A",
"d. c #F7AE5D",
"f. c #EBB45E",
"g. c #F4B254",
"h. c #F9B553",
"j. c #F7BC53",
"k. c #FABD55",
"l. c #F3B558",
"z. c #F9B75D",
"x. c #FABD5A",
"c. c #F5BA5B",
"v. c #CA9762",
"b. c #E39967",
"n. c #EDA464",
"m. c #ECA66D",
"M. c #EDA96D",
"N. c #F3A964",
"B. c #EEB46B",
"V. c #F1BC64",
"C. c #F9B967",
"Z. c #F1B66E",
"A. c #ECAF72",
"S. c #E4A777",
"D. c #F3BD7C",
"F. c #F2B974",
"G. c #F7C256",
"H. c #FBC253",
"J. c #F7C15F",
"K. c #FAC35A",
"L. c #FCC95A",
"P. c #FAC465",
"I. c #F7CB60",
"U. c #FBCB64",
"Y. c #F6C66A",
"T. c #FBC768",
"R. c #FBCC6B",
"E. c #FCD16D",
"W. c #FBCC73",
"Q. c #FBC977",
"!. c #FCD275",
"~. c #FCD57C",
"^. c #FDD87F",
"/. c #A1ABAC",
"(. c #B7BCB9",
"). c #E2AD80",
"_. c #F4C486",
"`. c #FDD686",
"'. c #FED983",
"]. c #F2D09A",
"[. c None",
/* pixels */
"[.[.[.[.[.[.[.[.[.[.[.[.[.[.[.[.[.[.[.[.[.[.[.[.[.[.[.[.[.[.[.[.[.[.[.[.[.[.[.[.[.[.[.[.[.[.[.[.[.[.",
"[.[.[.[.[.[.[.[.[.[.[.[.[.[.[.[.[.[.[.[.[.[.[.[.[.[.[.[.[.[.[.[.[.[.[.[.[.[.[.[.[.[.[.[.[.[.[.[.[.[.",
"[.[.[.[.[.[.[.[.[.[.[.[.[.[.[.[.[.[.[.[.[.[.[.[.[.[.[.[.[.[.[.[.[.[.[.[.[.[.[.[.M S S m ! [.[.[.[.[.",
"[.[.[.[.[.[.[.[.[.[.[.[.[.[.[.[.[.[.[.[.[.[.[.[.[.[.[.[.[.[.[.[.[.[.[.[.[.D S S S B l p T [.[.[.[.[.",
"[.[.[.[.[.[.[.[.[.[.[.[.[.[.[.[.[.[.[.[.[.[.[.[.[.[.[.[.[.[.[.[.[.[.[.[.[.H F x s p i U [.[.[.[.[.[.",
"[.[.[.[.[.[.[.[.[.[.[.[.[.[.[.[.[.[.[.[.[.[.[.[.[.[.[.[.[.[.[.[.[.[.[.[.<.<.b g T ^ [.[.[.[.[.[.[.[.",
"[.[.[.[.[.[.[.[.[.[.[.[.[.[.[.[.[.[.[.[.[.[.[.[.[.[.[.[.[.[.[.[.[.[.[.u n b ! *.[.[.[.[.[.[.[.[.[.[.",
"[.[.[.[.[.[.[.[.[.[.[.[.[.[.[.[.[.[.[.[.[.[.[.[.[.[.[.[.[.[.[.[.[.[.- q 3 f [.[.[.[.[.[.[.[.[.[.[.[.",
"[.[.[.[.[.[.[.[.[.[.[.[.[.[.[.[.[.[.[.[.[.[.[.[.[.[.[.[.[.[.[.[.[.[.t 1 O L [.[.[.[.[.[.[.[.[.[.[.[.",
"[.[.[.[.[.[.[.[.[.[.[.[.[.[.[.[.[.[.[.[.[.[.[.[.[.[.[.[.[.[.[.[.[.t 2 o & [.[.[.[.[.[.[.[.[.[.[.[.[.",
"[.[.[.[.[.[.[.[.[.[.[.[.[.[.[.[.[.[.[.[.[.[.[.[.[.[.[.[.[.[.[.[.4 5 + % J [.[.[.[.[.[.[.[.[.[.[.[.[.",
"[.[.[.[.[.[.[.[.[.[.[.[.[.[.[.[.[.[.[.[.[.[.[.[.[.[.[.[.[.[.[.8 0 # Y K ; [.[.[.[.[.[.[.[.[.[.[.[.[.",
"[.[.[.[.[.[.[.[.[.[.[.[.[.[.[.[.[.[.[.[.[.[.[.[.[.[.[.[.[.t 9 1 # ( [.[.* # : [.r 6 4 [.[.[.[.[.[.[.",
"[.[.[.[.[.[.[.[.[.[.[.[.[.[.[.[.[.[.[.[.[.[.[.[.[.[.[.[.e 5 X @ E [.[.[.[.[.w Y [.9 1 $ [.[.[.[.[.[.",
"[.[.[.[.[.[.[.[.[.[.[.[.[.[.[.[.[.[.[.[.[.[.[.[.[.[.[.c 7 X , { [.[.[.[.[.[.[.[.[.[.< > [.[.[.[.[.[.",
"[.[.[.[.[.[.[.[.[.[.[.[.[.[.[.[.[.[.[.[.[.[.[.[.[.[.[ S y I [.[.[.[.[.[.[.[.[.[.[.[.[.[.[.[.[.[.[.[.",
"[.[.[.[.[.[.[.[.[.[.[.[.[.[.[.[.[.[.[.[.[.[.[.[.[.1.C j R [.[.[.[.[.[.[.[.[.[.[.[.[.[.[.[.[.[.[.[.[.",
"[.[.[.[.[.[.[.[.[.[.[.[.[.[.[.[.[.[.[.[.[.[.[.[.M N a Q [.[.[.[.[.[.[.[.[.[.[.[.[.[.[.[.[.[.[.[.[.[.",
"[.[.[.[.[.[.[.[.[.[.[.[.[.[.[.[.[.[.[.[.[.[.[.[.) a g [.[.[.[.[.[.[.[.[.[.[.[.[.[.[.[.[.[.[.[.[.[.[.",
"[.[.[.[.[.[.[.[.[.[.[.[.[.[.[.[.[.[.[.[.[.[.[.[.] a h [.[.[.[.[.[.[.[.[.[.[.[.[.[.[.[.[.[.[.[.[.[.[.",
"[.[.[.[.[.[.[.[.[.[.[.[.[.[.[.[.[.[.[.[.[.[.[.[.` z h [.[.[.[.[.[.[.[.[.[.[.[.[.[.[.[.[.[.[.[.[.[.[.",
"[.[.[.[.[.[.[.[.[.[.[.[.[.[.[.[.[.[.[.[.[.[.[.[.1.z Q [.[.[.[.[.[.[.[.[.[.[.[.[.[.[.[.[.[.[.[.[.[.[.",
"[.[.[.[.[.[.[.[.[.[.[.[.[.[.[.[.[.[.[.[.[.[.[.' H k &.[.[.[.[.[.[.[.[.[.[.[.[.[.[.[.[.[.[.[.[.[.[.[.",
"[.[.[.[.[.[.[.[.[.[.[.[.[.[.[.[.[.[.[.[.[.[._ B v / [.[.[.[.[.[.[.[.[.[.[.[.[.[.[.[.[.[.[.[.[.[.[.[.",
"[.[.[.[.[.[.[.[.[.[.[.[.[.[.[.[.[.[.[.0.l.R.0.M Q [.[.[.[.[.[.[.[.[.[.[.[.[.[.[.[.[.[.[.[.[.[.[.[.[.",
"[.[.[.[.[.[.[.[.[.[.[.[.[.[.[.[.[.[.[.1.q.H.i.a.>.[.[.[.[.[.[.[.[.[.[.[.[.[.[.[.[.[.[.[.[.[.[.[.[.[.",
"[.[.[.[.[.[.[.[.[.[.[.[.[.[.[.[.[.[.[.$.%.;.w.4.3.[.[.[.[.[.[.[.[.[.[.[.[.[.[.[.[.[.[.[.[.[.[.[.[.[.",
"[.[.[.[.[.[.[.[.[.[.[.[.[.[.[.[.[.[.=.(./.. V F ' [.[.[.[.[.[.[.[.[.[.[.[.[.[.[.[.[.[.[.[.[.[.[.[.[.",
"[.[.[.[.[.[.[.[.[.[.[.[.f.f.V.Y.Y.l.0.v.#.  W [ ` [.[.[.[.[.[.[.[.[.[.[.[.[.[.[.[.[.[.[.[.[.[.[.[.[.",
"[.[.[.[.[.[.[.[.[.[.V.P.T.T.T.R.E.T.x.4.~   [.[.[.[.[.[.[.[.[.[.[.[.[.[.[.[.[.[.[.[.[.[.[.[.[.[.[.[.",
"[.[.[.[.[.[.[.[.[.c.T.!.E.!.~.!.R.R.x.r.-.[.[.[.[.[.[.[.[.[.[.[.[.[.[.[.[.[.[.[.[.[.[.[.[.[.[.[.[.[.",
"[.[.[.[.[.[.[.[.g.T.!.!.~.~.I.E.~.K.h.4.n.[.[.[.[.[.[.[.[.[.[.[.[.[.[.[.[.[.[.[.[.[.[.[.[.[.[.[.[.[.",
"[.[.[.[.[.[.[.g.K.W.E.'.~.L.~.~.G.x.t.+.n.[.[.[.[.[.[.[.[.[.[.[.[.[.[.[.[.[.[.[.[.[.[.[.[.[.[.[.[.[.",
"[.[.[.[.[.[.p.h.U.U.^.^.E.~.!.G.k.h.4...m.[.[.[.[.[.[.[.[.[.[.[.[.[.[.[.[.[.[.[.[.[.[.[.[.[.[.[.[.[.",
"[.[.[.[.[.[.a.K.L.~.'.~.'.W.i.G.l.q.| 1.S.[.[.[.[.[.[.[.[.[.[.[.[.[.[.[.[.[.[.[.[.[.[.[.[.[.[.[.[.[.",
"[.[.[.[.[.[.h.H.E.^.'.'.Y.i.j.h.q.| H <.[.[.[.[.[.[.[.[.[.[.[.[.[.[.[.[.[.[.[.[.[.[.[.[.[.[.[.[.[.[.",
"[.[.[.[.[.p.u.K.~.`.`.K.i.h.u.4.| G C b.[.[.[.[.[.[.[.[.[.[.[.[.[.[.[.[.[.[.[.[.[.[.[.[.[.[.[.[.[.[.",
"[.[.[.[.[.a.y.T.~.`.x.u.i.t.4.| G S :.[.[.[.[.[.[.[.[.[.[.[.[.[.[.[.[.[.[.[.[.[.[.[.[.[.[.[.[.[.[.[.",
"[.[.[.[.[.t.u.Q.Q.z.y.y.q.| } G D 6.S.[.[.[.[.[.[.[.[.[.[.[.[.[.[.[.[.[.[.[.[.[.[.[.[.[.[.[.[.[.[.[.",
"[.[.[.[.[.a.z.Y.g.e.e.@.} G F H 6.).[.[.[.[.[.[.[.[.[.[.[.[.[.[.[.[.[.[.[.[.[.[.[.[.[.[.[.[.[.[.[.[.",
"[.[.[.[.[.a.C.a.w.q.o.} ..<.8.S.[.[.[.[.[.[.[.[.[.[.[.[.[.[.[.[.[.[.[.[.[.[.[.[.[.[.[.[.[.[.[.[.[.[.",
"[.[.[.[.Z.d.d.q.@.} ,.7.m.[.[.[.[.[.[.[.[.[.[.[.[.[.[.[.[.[.[.[.[.[.[.[.[.[.[.[.[.[.[.[.[.[.[.[.[.[.",
"[.[.[.[.Z.d.r.+...7.A.[.[.[.[.[.[.[.[.[.[.[.[.[.[.[.[.[.[.[.[.[.[.[.[.[.[.[.[.[.[.[.[.[.[.[.[.[.[.[.",
"[.[.[.[.F.d.5.,.n.[.[.[.[.[.[.[.[.[.[.[.[.[.[.[.[.[.[.[.[.[.[.[.[.[.[.[.[.[.[.[.[.[.[.[.[.[.[.[.[.[.",
"[.[.[.[.D.s.2.M.[.[.[.[.[.[.[.[.[.[.[.[.[.[.[.[.[.[.[.[.[.[.[.[.[.[.[.[.[.[.[.[.[.[.[.[.[.[.[.[.[.[.",
"[.[.[.[._.N.A.[.[.[.[.[.[.[.[.[.[.[.[.[.[.[.[.[.[.[.[.[.[.[.[.[.[.[.[.[.[.[.[.[.[.[.[.[.[.[.[.[.[.[.",
"[.[.[.[._.D.[.[.[.[.[.[.[.[.[.[.[.[.[.[.[.[.[.[.[.[.[.[.[.[.[.[.[.[.[.[.[.[.[.[.[.[.[.[.[.[.[.[.[.[.",
"[.[.[.[.].[.[.[.[.[.[.[.[.[.[.[.[.[.[.[.[.[.[.[.[.[.[.[.[.[.[.[.[.[.[.[.[.[.[.[.[.[.[.[.[.[.[.[.[.[.",
"[.[.[.[.[.[.[.[.[.[.[.[.[.[.[.[.[.[.[.[.[.[.[.[.[.[.[.[.[.[.[.[.[.[.[.[.[.[.[.[.[.[.[.[.[.[.[.[.[.[.",
"[.[.[.[.[.[.[.[.[.[.[.[.[.[.[.[.[.[.[.[.[.[.[.[.[.[.[.[.[.[.[.[.[.[.[.[.[.[.[.[.[.[.[.[.[.[.[.[.[.[."
};
