/* XPM */
static char *result[] = {
/* columns rows colors chars-per-pixel */
"50 50 128 2 ",
"   c #5B2A0A",
".  c #573018",
"X  c #5A321A",
"o  c #612E0B",
"O  c #65310C",
"+  c #6C340C",
"@  c #6F380E",
"#  c #71370D",
"$  c #73390D",
"%  c #793C0D",
"&  c #653411",
"*  c #6A3612",
"=  c #6D3913",
"-  c #60371D",
";  c #673B1D",
":  c #6C3C1C",
">  c #723C13",
",  c #7A3E12",
"<  c #723E19",
"1  c #573427",
"2  c #6E3F21",
"3  c #603A2C",
"4  c #7D4215",
"5  c #75421C",
"6  c #7B431B",
"7  c #7F481F",
"8  c #7B4623",
"9  c #7D4A26",
"0  c #77482F",
"q  c #7F4B2E",
"w  c #694134",
"e  c #6C453D",
"r  c #7E4C34",
"t  c #794C3C",
"y  c #7F5136",
"u  c #7E513F",
"i  c #6F4741",
"p  c #744A41",
"a  c #7E5343",
"s  c #765553",
"d  c #82420E",
"f  c #824414",
"g  c #8B4712",
"h  c #864817",
"j  c #8B4915",
"k  c #81461A",
"l  c #85491B",
"z  c #8C4C1B",
"x  c #914D17",
"c  c #924F19",
"v  c #8F5018",
"b  c #915217",
"n  c #94521C",
"m  c #99551D",
"M  c #824B24",
"N  c #8F4F21",
"B  c #874F2E",
"V  c #875025",
"C  c #8B5124",
"Z  c #8C532A",
"A  c #8F582F",
"S  c #935321",
"D  c #9B5722",
"F  c #9D5A23",
"G  c #955729",
"H  c #955A2C",
"J  c #865235",
"K  c #8C5636",
"L  c #8E5833",
"P  c #86553F",
"I  c #89553A",
"U  c #8F5B3B",
"Y  c #925932",
"T  c #9D5E32",
"R  c #965F3F",
"E  c #A25D24",
"W  c #9F622B",
"Q  c #95603D",
"!  c #9D653D",
"~  c #A46126",
"^  c #A96326",
"/  c #A5622A",
"(  c #AB662A",
")  c #AE6A2E",
"_  c #B46B2D",
"`  c #A76534",
"'  c #AA6733",
"]  c #A76934",
"[  c #AD6E34",
"{  c #B26D31",
"}  c #B57233",
"|  c #BA7434",
" . c #B3743E",
".. c #BE7639",
"X. c #BE7A39",
"o. c #C37736",
"O. c #C47B3C",
"+. c #845542",
"@. c #885843",
"#. c #915F44",
"$. c #855D53",
"%. c #966243",
"&. c #986343",
"*. c #9A694F",
"=. c #9F705F",
"-. c #A26A44",
";. c #A96D41",
":. c #A16C4E",
">. c #A06E55",
",. c #AD7654",
"<. c #A57259",
"1. c #AD795C",
"2. c #927177",
"3. c #CB803F",
"4. c #D0823C",
"5. c #D8853B",
"6. c #CE8543",
"7. c #D68D44",
"8. c #D88B47",
"9. c #D78B4A",
"0. c #E39652",
"q. c #E49A57",
"w. c #EEA059",
"e. c #F2A55E",
"r. c #F6A962",
"t. c #F8AD66",
"y. c #FFB46C",
"u. c None",
/* pixels */
"u.u.u.u.u.u.u.u.u.u.u.u.u.u.u.u.u.u.u.u.u.u.u.u.u.u.u.u.u.u.u.u.u.u.u.u.u.u.u.u.u.u.u.u.u.u.u.u.u.u.",
"u.u.u.u.u.u.u.u.u.u.u.u.u.u.u.u.u.u.u.u.u.u.u.u.u.u.u.u.u.u.u.u.u.u.u.u.u.u.u.u.u.u.u.u.u.u.u.u.u.u.",
"u.u.u.u.u.u.u.u.u.u.u.u.u.u.u.u.u.u.u.u.u.u.u.u.u.u.u.u.u.u.u.u.u.u.u.u.u.u.u.u.u.u.u.u.u.u.u.u.u.u.",
"u.u.u.u.u.u.u.u.u.u.u.u.u.u.u.u.u.u.u.u.u.u.u.u.u.u.u.u.u.u.u.u.u.u.u.u.u.u.u.u.u.u.u.u.u.u.u.u.u.u.",
"u.u.u.u.u.u.u.u.u.u.u.u.u.u.u.u.u.u.u.u.u.u.u.u.u.u.u.u.u.u.u.u.u.u.u.u.u.u.u.u.u.u.u.u.u.u.u.u.u.u.",
"u.u.u.u.u.u.u.u.u.u.u.u.u.u.u.u.u.u.u.u.u.u.u.u.u.u.u.u.u.u.u.u.u.u.u.u.u.u.u.u.u.u.u.u.u.u.u.u.u.u.",
"u.u.u.u.u.u.u.u.u.u.u.u.u.u.u.u.u.u.u.u.u.u.u.u.u.u.u.u.u.u.u.u.u.u.u.u.u.u.u.u.u.u.u.u.u.u.u.u.u.u.",
"u.u.u.u.u.u.u.u.u.u.u.u.u.u.u.u.u.u.u.u.u.u.u.u.u.u.u.u.u.u.u.u.u.u.u.u.u.u.u.u.u.u.u.u.u.u.u.u.u.u.",
"u.u.u.u.u.u.u.u.u.u.u.u.u.u.u.u.u.u.u.u.u.u.u.u.u.u.u.u.u.u.u.u.u.u.u.u.u.u.u.u.u.u.u.u.u.u.u.u.u.u.",
"u.u.u.u.u.u.u.u.u.u.u.u.u.u.u.u.u.u.u.u.u.u.u.u.u.u.u.u.u.u.u.u.u.u.u.u.u.u.u.u.u.u.u.u.u.u.u.u.u.u.",
"u.u.u.u.u.u.u.u.u.u.u.u.u.u.u.u.u.u.u.> u.u.u.u.u.u.u.u.u.u.u.u.u.u.u.u.u.u.u.u.u.u.u.u.u.u.u.u.u.u.",
"u.u.u.u.u.u.u.u.u.u.u.u.u.u.u.u.u.u.u., u.u.u.u.u.u.u.u.u.u.u.u.u.u.u.u.u.u.u.u.u.u.u.u.u.u.u.u.u.u.",
"u.u.u.u.u.u.u.u.u.u.u.u.u.u.u.u.u.u.u., > u.u.u.u.u.u.u.u.u.u.u.u.u.u.u.u.u.u.u.u.u.u.u.u.k u.u.u.u.",
"u.u.u.u.u.u.u.u.u.u.u.u.u.u.u.u.u.u.D # + u.u.u.u.u.u.u.u.u.u.u.u.u.u.u.u.u.u.u.u.u.u.u.z : u.u.u.u.",
"u.u.u.u.u.u.u.u.u.u.u.u.u.u.u.u.u.u.z + # > u.u.u.u.u.u.u.u.u.u.u.u.u.u.u.u.u.u.u.u.u.u.4 * u.u.u.u.",
"u.u.u.u.u.u.u.u.u.u.u.u.u.u.u.u.u.u.4 O + # u.u.u.u.u.u.u.u.u.u.u.u.u.u.u.u.u.u.u.u.u.S * u.u.u.u.u.",
"u.u.u.u.u.u.u.u.u.u.u.u.u.u.u.u.u.E * O $ $ u.u.u.u.u.u.u.u.u.u.u.u.u.u.u.u.u.u.u.u.F , & u.u.u.u.u.",
"u.u.u.u.u.u.u.u.u.u.u.u.u.u.u.u.u.h o + $ # u.u.u.u.u.u.u.u.u.u.u.u.u.u.u.u.u.u.u.E N * * u.u.u.u.u.",
"u.u.u.u.u.u.u.u.u.u.u.u.u.u.u.u.m + O O # , u.u.u.u.u.u.u.u.u.u.u.u.u.u.u.u.u.u.E D 6 * > u.u.u.u.u.",
"u.u.u.u.u.u.u.u.u.u.u.u.u.u.u.E # o + O # d u.u.u.u.u.u.u.u.u.u.u.u.u.u.u.u.u.n D 4 & = < u.u.u.u.u.",
"u.u.u.u.u.u.u.u.u.u.u.u.u.u.( , o O O O + % u.u.u.u.u.u.u.u.u.u.u.u.u.u.u.u.n D l * o < u.u.u.u.u.u.",
"u.u.u.u.u.u.u.u.u.u.u.u.u._ f O + + + # + + u.u.u.u.u.u.u.u.u.u.u.u.u.u.E b m h * * * 7 u.u.u.u.u.u.",
"u.u.u.u.u.u.u.u.u.u.u.u.u.z + # + + # + $ $ u.u.u.u.u.u.u.u.u.u.u.u.E n n n < + * * 6 C u.u.u.u.u.u.",
"u.u.u.u.u.u.u.u.u.u.u.u._ + + @ + O $ # + u.u.u.u.u.u.u.u.u.u.u.c x c c k * & & > k M u.u.u.u.u.u.u.",
"u.u.u.u.u.u.u.u.u.u.u.u.m   O + $ + @ u.u.u.u.u.u.u.u.u.u.x j g j j 4 * * * * 5 8 G H u.u.u.u.u.u.u.",
"u.u.u.u.u.u.u.u.u.u.u.o.4   + + % u.u.u.u.u.u.u.u.u.u.x x x h , = * O = > 9 8 H Y Q u.u.u.u.u.u.u.u.",
"u.u.u.u.u.u.u.u.u.u.u._ @   + u.u.u.W u.u.u.u.u.u.D x z 4 = * & & = 5 5 V W %.! -.*.u.u.u.u.u.u.u.u.",
"u.u.u.u.u.u.u.u.u.u.u./ > + l [ | n b ~ / D u.u.n f 6 : : < 9 5 7 7 A L ] ;.<.<.<.u.u.u.u.u.u.u.u.u.",
"u.u.u.u.u.u.u.u.u.u.u.u.~ n ( _ v n ) ) ^ m x h = & V 9 9 9 Q Z ] U &.%.;.<.1.u.u.u.u.u.u.u.u.u.u.u.",
"u.u.u.u.u.u.u.u.u.u.u.u.} ~ } E m ) ..{ ^ m d 4 5 u.u.u.R r *.I <.$.#.%.,.2.u.u.u.u.u.u.u.u.u.u.u.u.",
"u.u.u.u.u.u.u.u.u.u.u.7.) } / n E | 3.o.5._ b x f u.u.u.u.u.u.u.u.s +.u.u.u.u.u.u.u.u.u.u.u.u.u.u.u.",
"u.u.u.u.u.u.u.u.u.u.u.6.X.~ b b / 6.0.3.4.E ^ ~ d 4 u.u.u.u.u.u.u.u.u.u.u.u.u.u.u.u.u.u.u.u.u.u.u.u.",
"u.u.u.u.u.u.u.u.u.u.H [ / v h m E 0.r.q.O.{ o._ c z u.u.u.u.u.u.u.u.u.u.u.u.u.u.u.u.u.u.u.u.u.u.u.u.",
"u.u.u.u.u.u.u.u.u.u.V / F h d ~ E 6.r.y.r.r.8.{ D f u.u.u.u.u.u.u.u.u.u.u.u.u.u.u.u.u.u.u.u.u.u.u.u.",
"u.u.u.u.u.u.u.u.u.u.5 C C k % b E { 9.w.r.0.o.D f $ u.u.u.u.u.u.u.u.u.u.u.u.u.u.u.u.u.u.u.u.u.u.u.u.",
"u.u.u.u.u.u.u.u.u.u.; 5 7 6 % 4 D E E _ ' ( E S d # u.u.u.u.u.u.u.u.u.u.u.u.u.u.u.u.u.u.u.u.u.u.u.u.",
"u.u.u.u.u.u.u.u.u.u.- ; 6 ; l v D ` ` ` ' E E h $ $ u.u.u.u.u.u.u.u.u.u.u.u.u.u.u.u.u.u.u.u.u.u.u.u.",
"u.u.u.u.u.u.u.u.u.u.u.X = 8 S S G Y K Y Y G S h 4 u.u.u.u.u.u.u.u.u.u.u.u.u.u.u.u.u.u.u.u.u.u.u.u.u.",
"u.u.u.u.u.u.u.u.u.u.u.u.. 2 C D T #.#.#.R J B M 4 u.u.u.u.u.u.u.u.u.u.u.u.u.u.u.u.u.u.u.u.u.u.u.u.u.",
"u.u.u.u.u.u.u.u.u.u.u.u.. . M z Z I @.+.t a r < u.u.u.u.u.u.u.u.u.u.u.u.u.u.u.u.u.u.u.u.u.u.u.u.u.u.",
"u.u.u.u.u.u.u.u.u.u.u.u.u.u.5 8 M B I P +.a 0 u.u.u.u.u.u.u.u.u.u.u.u.u.u.u.u.u.u.u.u.u.u.u.u.u.u.u.",
"u.u.u.u.u.u.u.u.u.u.u.u.u.u.u.1 3 w e i p t u.u.u.u.u.u.u.u.u.u.u.u.u.u.u.u.u.u.u.u.u.u.u.u.u.u.u.u.",
"u.u.u.u.u.u.u.u.u.u.u.u.u.u.u.u.u.u.u.u.u.u.u.u.u.u.u.u.u.u.u.u.u.u.u.u.u.u.u.u.u.u.u.u.u.u.u.u.u.u.",
"u.u.u.u.u.u.u.u.u.u.u.u.u.u.u.u.u.u.u.u.u.u.u.u.u.u.u.u.u.u.u.u.u.u.u.u.u.u.u.u.u.u.u.u.u.u.u.u.u.u.",
"u.u.u.u.u.u.u.u.u.u.u.u.u.u.u.u.u.u.u.u.u.u.u.u.u.u.u.u.u.u.u.u.u.u.u.u.u.u.u.u.u.u.u.u.u.u.u.u.u.u.",
"u.u.u.u.u.u.u.u.u.u.u.u.u.u.u.u.u.u.u.u.u.u.u.u.u.u.u.u.u.u.u.u.u.u.u.u.u.u.u.u.u.u.u.u.u.u.u.u.u.u.",
"u.u.u.u.u.u.u.u.u.u.u.u.u.u.u.u.u.u.u.u.u.u.u.u.u.u.u.u.u.u.u.u.u.u.u.u.u.u.u.u.u.u.u.u.u.u.u.u.u.u.",
"u.u.u.u.u.u.u.u.u.u.u.u.u.u.u.u.u.u.u.u.u.u.u.u.u.u.u.u.u.u.u.u.u.u.u.u.u.u.u.u.u.u.u.u.u.u.u.u.u.u.",
"u.u.u.u.u.u.u.u.u.u.u.u.u.u.u.u.u.u.u.u.u.u.u.u.u.u.u.u.u.u.u.u.u.u.u.u.u.u.u.u.u.u.u.u.u.u.u.u.u.u.",
"u.u.u.u.u.u.u.u.u.u.u.u.u.u.u.u.u.u.u.u.u.u.u.u.u.u.u.u.u.u.u.u.u.u.u.u.u.u.u.u.u.u.u.u.u.u.u.u.u.u."
};
