/* XPM */
static char *c6b76e031f04434a977d6219f624edb6fFJOgDnGumVaW4wd[] = {
/* columns rows colors chars-per-pixel */
"50 50 110 2 ",
"   c #57533F",
".  c #5A5743",
"X  c #5E5A47",
"o  c #605D47",
"O  c #625E4A",
"+  c #66634D",
"@  c #69654E",
"#  c #6A6652",
"$  c #6E6A54",
"%  c #6F6C59",
"&  c #726E56",
"*  c #726E58",
"=  c #75715B",
"-  c #79755C",
";  c #7D785E",
":  c #7A7761",
">  c #7D7A63",
",  c #817D65",
"<  c #817E69",
"1  c #858166",
"2  c #898465",
"3  c #85826B",
"4  c #89866C",
"5  c #8D896E",
"6  c #928D6E",
"7  c #858472",
"8  c #8A8671",
"9  c #8D8B73",
"0  c #918E75",
"q  c #928E7A",
"w  c #959176",
"e  c #9A9576",
"r  c #95937A",
"t  c #99967C",
"y  c #9C997D",
"u  c #A29D7D",
"i  c #A5A07F",
"p  c #979581",
"a  c #9A9781",
"s  c #9D9B83",
"d  c #A19D83",
"f  c #A19E89",
"g  c #A6A183",
"h  c #A9A585",
"j  c #A5A38B",
"k  c #AAA68A",
"l  c #ADAA8C",
"z  c #B1AD8E",
"x  c #A6A490",
"c  c #A8A790",
"v  c #ADAB92",
"b  c #B2AE92",
"n  c #B2AF99",
"m  c #B5B294",
"M  c #B8B596",
"N  c #B5B39A",
"B  c #B9B69A",
"V  c #BDBA9D",
"C  c #B5B5A0",
"Z  c #B8B7A0",
"A  c #BDBBA2",
"S  c #BEBBA2",
"D  c #BCBBA6",
"F  c #BEBCA5",
"G  c #BBBCAB",
"H  c #BCBDA9",
"J  c #BFBCAB",
"K  c #C0BD9F",
"L  c #C2BFA1",
"P  c #C1BFA5",
"I  c #C3C1A2",
"U  c #C3C0A3",
"Y  c #C4C1A3",
"T  c #C4C1A4",
"R  c #C7C4A7",
"E  c #C8C5A7",
"W  c #C3C1A9",
"Q  c #C5C3AB",
"!  c #C7C4A8",
"~  c #C3C3AE",
"^  c #C6C5AD",
"/  c #C8C6AA",
"(  c #C9C7AD",
")  c #CAC8AB",
"_  c #CBC9AC",
"`  c #CAC8AE",
"'  c #CDCAAE",
"]  c #D0CCAF",
"[  c #C5C3B0",
"{  c #C8C6B0",
"}  c #C7C8B2",
"|  c #C6C8B7",
" . c #CAC9B1",
".. c #CBCAB3",
"X. c #CDCBB2",
"o. c #CDCCB1",
"O. c #CCCBB4",
"+. c #CDCCB5",
"@. c #CCCCBB",
"#. c #D1CEB4",
"$. c #CFD0B6",
"%. c #D2D0B6",
"&. c #D3D2BB",
"*. c #D4D4C2",
"=. c #D8D7C4",
"-. c #D9D9C3",
";. c #DBDCC9",
":. c #E1E3CB",
">. c #E3E4D2",
",. c #E6E6DA",
/* pixels */
"B b z l z M L / ( A A P V m l e * r v N h g g g g z b l m K ` ' / L m w r A } @.W V l h h h m I ! T ",
"M m z l b M K ! ` V n ( P h 3 > < r v v g g g g h z m m m L ` ' m r s : j B  .( A l h h h h M T ! L ",
"M m b z m M K R X.N d ` P 9 7 C v c A v g g g k z m m m M K / / L 4 $ 8 v B W ^ A l h h h h M ! ! L ",
"V z b m M V I ! o.n 4 d r 8 G | H W W l g i g h z m m M V L / / ! h % s B W  .O.I b k g h l B ) ) T ",
"B z b M B K T / X.A 9 3 r D ~ A V F m h g g g i l m m M L T T / T l 4 s P ^ O.+.F b l h h l V ` ) ! ",
"B M M B V L T ( ` ! A n j N W m l l k g g g g g k z m B T T T T T B h t V P  . .Q m l h h z L ' / ! ",
"V V V V L Y ! ( ` ^ ^ N s c V l k k h g g g h h l b M L R T T I L L M w j V P I I M l h z V / ' / T ",
"L T V L T I T ` ` ^ ^ v a c v k l k h g g g h l l m V T / T T L V V L k w b N A P M h h M Y ` ` / I ",
"L L L Y T V M T ! V d j s j k k l k g g g g h l b M L / / / T V M M V I d j v M A M h z V / ' ) T L ",
"V V K I I V B V V y < r s d y h m k g g g h h l m M L / ) / T V M M V ` / k h b M z l b L ` ' ' T V ",
"B B V K V M M M m h y r 4 s v F M g g g g h l l b M V K Y / T V M M V / &.P y l M l l m L o.o./ T V ",
"B V V V V M m M l d r d - : v P z i g g h l l l b m B L T T L M M M L ) &.X.9 h m z l m T %./ I L L ",
"M m M B B m z m l 0 f F v 3 > k l g g h k l l b b M V I / I V M M V T ` o. .r 4 l b b V X.#./ T T V ",
"u e y d l l l m d q N A Q v = > e g k k l l z b l m V T T V M m V L ! / I v w : j m m L o.#.o.` L l ",
"m N b y d k v r < v N W ! ! k # > y k k l l b b b m V I L V m M P ! / R V 9 4 9 N N M T o.#.` ! ` V ",
":.:.$.B k v 0 * q c j N Q X.X.t * 9 k k l l b z b m V V K B M V T ) / m 4 % r v j s v I X.o.N B >.:.",
"^ P P ! A r : j B A b m P ^ +./ y > 4 g k l b m m m M V V M M T ) / L 0 . 4 s v x 8 d N Q L w N -.-.",
"M m m V a 9 v N m M l l B T ` #./ b < 4 h k n m z m m M M M V / T K z 6 ; w s s y 3 0 j n 4 < N P V ",
"k k l s 4 H Q b v m z l m L ! X.%.( l < 9 h b z l b b m m M T ` ! M u 2 3 0 4 5 j k w < = X 0 n v k ",
"3 * = - s *.Q M M z l z M L Q ( o.o.M - > k M m l l b m M A / ( I m g 2 4 9 4 d +.%.M d e t s w < < ",
"4 * $ 5 B ^ V M m z z b M L ! ( ` X.N . : V V m h l m M V Q / ! V z g 1 < 0 d F &.#.T l k ( T v s e ",
"h y r j F P V M M M m m M L T T ! ! Q a 9 N N l h l V A L ! ! V z g e - 0 j M / X.X.T b w b b b l l ",
"y y s V P A B m M V M M V A V V L I L P n v m k h b A L L ( L z h e < e l m V I L L L M 1 y l l h h ",
"w 9 j  .P L V b M L A V A L M m M L I A v j v k k b V L / T l 5 , , d m m M A L V V V M 5 1 b m l h ",
"y r b A L L A M I I L I T W B m z A I V N k j k h l M N d 3 * > r k m M V V P L V V A V l - < s b b ",
"w s v N A P L I ! ! A A ! I M m m L T A V N s 8 : : > 3 p f v m m z b V L L T P L V V L M e # = t m ",
"0 < * 3 t v V I ! ! I I ! P N b m A ( ( T I 4 + % O   8 Q M l l l l m L I T ! P V M M V m u 2 # > 0 ",
"M m y , # # = 8 c A P Q ! A m b m I +.X.A r r n k 0 : = m m l l k z B I Q ! ! I V m m m m h g > $ > ",
"M b z z l y < 3 9 0 j A ! V m b m A c t 4 v ! T V e 1 3 h b b l k b L Q ! T T I L L B M m b z 0 < j ",
"m z l z z b m A v 9 4 s A M m b b j 4 9 N  ./ L V l < s B V m l l m L / T N V L L V B M m m m k r n ",
"m l l k k l b V V N y * 9 h h h y d m P ( T ! L M m d 0 V L m z l m L / Q M B V B M M M m m M V l b ",
"m l h i u k V I T P 8 o @ - : 3 c N N V I ` X.T M V L r j L M m b M L / ! L V B M M M m m m B I V A ",
"m l h g l L T I T r @ 9 c A v - 0 j b M I ` o.T M K ) V r k M B M V T ` ! I V V B M M M m m M V M T ",
"m l h h z m M V e @ r A +.+.F d 3 r v N P ` ` I M L ` ' k 3 d L L T / ' ( T I L V M M M M m h r M ( ",
"M b l l k h h d ; = j &.&.A m b e 4 j m I ` ! A V T ' ' E j 3 v ! o.+.o.X.( T I V M M M l t 4 l Q Q ",
"V M m l u y e w y c D  .( b l z b y d N ( +.I V V V E ` / / t > v Q W  .#.` T T V M V k = * r N M M ",
"- , 5 1 ; - 3 j k F ;.&.A k k b M N j v j A L M M M R E Y ] ) r t j q Z +.! L L V M l 3 = w : % & & ",
"4 , ; - - - j A F P L V z k l l m V j * + r m M V L R V Y #.#.h , < s Z  .I L I Y M * # 9 t = * q 0 ",
"&.I A m h v &.&.I m l l l l l l z M V j > : r M I I M V R ] Y u d N j B F T L T V h > 9 w 5 4 s  .-.",
"&. .L k f *.>.X.M z l z m z z l l b m V j > 0 M V t l V Y R M 0 H / l r a m V M r > r s d d n V V X.",
"+.+.A a @.,.-.( V z l z V M b l l l l b z h w m r 3 l m M z y a &.) m 1 < d k 0 8 D *.[ N b b k b ^ ",
"&.+.f r +.-.&.( T M m m B L m z l l h h l b y > . < 5 5 w 4 @ t o.o.V e + * 4 4 s N @.F v h g g l W ",
"Q q % t A  .&.X.( T V M M B M m m l h h l z b - = d N N n k a r m A h k 3 % + 1 j s D N k d g g b ^ ",
"q = r v I X.#.+.! T T V M M M M m l h h l b h < j { =.+.( ! T k 9 1 5 V V V l d t < 0 b k h h h k j ",
"r a N P L  .&.+.I I ! K M M m M m z l h h d 1 4 N A M V L L L M e > z V V L T V w 3 s l k k k z l j ",
"s 4 w l V ` &.X.! ( T L V M m m m z l g 4 = - s n V m M V Y T T L M M V L L L N s N F b k k l m L X.",
"j 3 s l B ! X.( ! Q L V M m m m m z h 5 - * 9 n W V m M L T E ` ` Y M M K L h > s F A b l l l m I #.",
"j w l m M I ( ! I I L V M M m m m l w > 4 9 h m m m m B I T E ` E V m M V b 4 a c v n l k h l m T +.",
"n t h l M V ! ( T I L V M M m m b e < t d d h h l m m m M L / ` T M z m b r N -.>.;.F l h h l M Q X.",
"V h k l b M I ` / I L V M M m z 9 * 9 A l u u h k m m l l V / ` / V m z y c  .*.&.( N l l h b V Q ` "
};
