/* XPM */
static char *result[] = {
/* columns rows colors chars-per-pixel */
"50 50 24 1 ",
"  c #8BB84F",
". c #8CBA51",
"X c #93BD54",
"o c #9ABE56",
"O c #97BD58",
"+ c #9DBF59",
"@ c #A1BF58",
"# c #8FC154",
"$ c #92C254",
"% c #9BC456",
"& c #9EC857",
"* c #9EC159",
"= c #9DC859",
"- c #A6C155",
"; c #A8C154",
": c #A5C35C",
"> c #A9C45C",
", c #A5CB5B",
"< c #A9CB5E",
"1 c #ABC661",
"2 c #A7C860",
"3 c #ADC962",
"4 c #B3CB65",
"5 c #B6CC69",
/* pixels */
":@1@11::1>443@:+@:***@@:+@::::1:1@1111445543:1::++",
"::>@:::1@<141>:@+*:++:*+**++::1:>:::1443314>::+++:",
"::>1:::1>>-<>@+*:+++++:*::::>1::1:::@:4+**@@*++++:",
":1@1::1@:>--@>@@++*:***:+**:::::>:>:OO+..O+@*+:::+",
"@1111@1@---;---@+:%-*%%%*:1::::::>:+XX. X+:++@+*++",
"11@@:11@;;:;---%++*%%%%&*:@11>:1>:XXX   +++@@*++::",
"41>,><<<,,-,:---:**%%&%%%%@@1::1:,*.%.##.Oo+*+11:1",
"41<,,,,,,,,,,,,,@*%%%%%%%%+@::>>,,,%&%&%$oX++11115",
"43<:,2%==,==&&,&%%&%%&%&%%%%,,,,,,<,,,,&,,OO*225:+",
"3<<,==#$#$=$$%&%%%%%%%%%%&%,,,,,,<,,,,,,*$.O2OO*O.",
"33,*$$#$###$#%%%%%%&&%=&%&%,,,,,<,,<,,%%%. OO ....",
"3:=%$$####$=%$%%%%%%%%$%%$%=%,,<<<<3<,$#..  .    .",
"42$$$#$$$$%%%%%%%&%%%$$%#$$%$$$=:2,2:$....        ",
"2=$$$$$$%&%%&%%%%%%%%$$$##$$%%$%$*:*X.. ..  .     ",
"+**$++*$%%%&%%%%%&%$$$##$$$$$**$$+**OX.X........  ",
"++*+**++%%%%%%%%%$$%$#$$#$++**+:+*+**+*+OO$*O.X...",
":+:+:*****OOO..X$$$$$##$$+++:@*+**++++@:+@::*O*$+.",
"+++++**++O.X.     ###$$$*++:+++:+:+:+:@:::::O=**+O",
"+:+:+*++OX  .      ###$$+*+++++@+*@@++::2*O+$$$O*$",
"++*+:++X..          ..X**+@*:++2@+2@1:1:**OO$$#$##",
"+*OO*$*X.             XX++@@+:*:11@@1::**$$##$###$",
"O+$$$#X.     .         .O+*+:11144411:,*$$#$##$#$#",
"$$$$$$X..   ....     ....O++@4354541>::%$$##$#$$##",
"$#$=$##$XX...%$$X%%#####X$+14155454441$#$X#$###$$$",
"=$=222*:***%$,,=$=$$$#####*24445455433:=$$$$$$ $**",
"OO2433231333<<,,,=$$$#$$$$2345555554443:&$$$o-&---",
".O2244344<<<3,*%$$$$$#$$$2344445445444,:&$$$-;-;;;",
".$=2332*1OXo*$%$#$$$=$$$$$=2444442333,,,&%%%-;-;;;",
"*$<,2<%.o      X# $&%%$$$$=:,332<&%=,&%&$$$;;;;-;;",
"33<,==$.   .    $#$%%%=&%%%%*:*%%%######$-;;;;;;;;",
"43<,%.X.     X $$%%&=%%==%$*$==#$##$###$#--;;;;;;-",
"44<,,X%%%$X  X$$-%%%%%%%%%==$$###$#######$$%-@@;oX",
"<<<,,,==,==$$#%%%%%%%%%%%%&%%#####$###$##$$%&-$-O ",
"<<<,<,,,,,,,%%%%%&&%%&&%&%%#$$$$$#$#$##$#$#$$$  . ",
",,,,,,,,,,,,%&%%%%%%%%%%%%%%#$=$$#$#$###$$###X    ",
"<<,,<,,,,,=,,&$%%%%&%&&%&%%,&&,&$$$###$$##$#      ",
"<4<<,<,=&&#&%&#$%%$&%%*%%&&,,,&&=#$#$#$##$##    .O",
"444<<,,%%%####$$$$$$$%%%&&,,,,&%###$$##### #    OO",
"<343<,=$$$###$###$#$%$%=,,,,,,,&$#####$$$##   $%O+",
"<=,==%##$$##$#$##$#$$%%*,,,,,,,,&&##$###$##$#X#%**",
"O.XO$$.###$$#$$######$=:<,,,,,,,===########$#$%***",
"    ...O#&*%$%*$*$$##%%:<,,,==-,,=$#$$$$$$#$#$$***",
"    ..O*$:::@::*+*$%##**::*,$%X%=$%.$=$*=$$###$$O=",
"   ..X+@,:::1@1,@1,*=*$::%X$.   .....O$*$$#$##$*OO",
"   X++@1>1:::@>:;-:--&-;+o.     ......X$$$#$$#$$OO",
"OO.O@11@1@>::1>@;--;---@ooo %;XXXXXX$#$,=$$#.#####",
"212+1:@1@1>:>>@;;;;---;;@@@@;;;@+1*,=:*,%$##......",
"5511@11:1@>>>@>;@;;;-;;;;;;@;45434143332=#.. .....",
"544431::::1:@@@@;;@@;;;;;;;@;444444544,:O...  ....",
"555415111::1@@@1;;@4;;;;;;4@@4555555551O.........."
};
