/* XPM */
static char *e94cb447b6154a44aab333080705ccfdr5pmEvrtRiPf64qN[] = {
/* columns rows colors chars-per-pixel */
"50 50 167 2 ",
"   c None",
".  c #020203",
"X  c #090706",
"o  c #0D0A07",
"O  c #070708",
"+  c #0B0709",
"@  c #070809",
"#  c #0D0A0A",
"$  c #130D07",
"%  c #140708",
"&  c #110E09",
"*  c #1B0C0C",
"=  c #110606",
"-  c #15110A",
";  c #1B150B",
":  c #1F180C",
">  c #1C1515",
",  c #1E1916",
"<  c #191615",
"1  c #2C0D0E",
"2  c #221A0C",
"3  c #281F0E",
"4  c #370F11",
"5  c #221C16",
"6  c #241E1A",
"7  c #2D1919",
"8  c #3B1213",
"9  c #311B10",
"0  c #3C1A13",
"q  c #3E1F1B",
"w  c #2B210E",
"e  c #35290F",
"r  c #2E2412",
"t  c #26211E",
"y  c #2A231D",
"u  c #312611",
"i  c #362911",
"p  c #3B2D13",
"a  c #3C2113",
"s  c #3E3114",
"d  c #321F26",
"f  c #2D2621",
"g  c #302723",
"h  c #332A25",
"j  c #3C2828",
"k  c #3E3223",
"l  c #3C312B",
"z  c #3E3B38",
"x  c #4F1719",
"c  c #461A1A",
"v  c #691C1D",
"b  c #443515",
"n  c #483716",
"m  c #473817",
"M  c #4B3A16",
"N  c #453619",
"B  c #4D3C18",
"V  c #503E19",
"C  c #6F271F",
"Z  c #43372C",
"A  c #462B36",
"S  c #433730",
"D  c #453932",
"F  c #493C35",
"G  c #554419",
"H  c #584319",
"J  c #534317",
"K  c #4D403A",
"L  c #52433C",
"P  c #58483F",
"I  c #7A4C24",
"U  c #785B24",
"Y  c #65503A",
"T  c #5D4D44",
"R  c #614F47",
"E  c #625147",
"W  c #65534A",
"Q  c #6D594E",
"!  c #6C574C",
"~  c #755E4A",
"^  c #6C5B50",
"/  c #715D52",
"(  c #766156",
")  c #7C655A",
"_  c #7D665A",
"`  c #832426",
"'  c #AE2E32",
"]  c #C23336",
"[  c #C13837",
"{  c #C73639",
"}  c #DA383D",
"|  c #E03A3F",
" . c #8A6D2C",
".. c #85692B",
"X. c #93732B",
"o. c #A27E2F",
"O. c #C54A38",
"+. c #DC553F",
"@. c #C47C39",
"#. c #DA723D",
"$. c #EA3B41",
"%. c #826643",
"&. c #816A5E",
"*. c #9E7C5B",
"=. c #846D60",
"-. c #886E62",
";. c #8C7265",
":. c #917465",
">. c #917669",
",. c #947A6C",
"<. c #9A7F6F",
"1. c #9C7E70",
"2. c #E64041",
"3. c #E97841",
"4. c #E27540",
"5. c #AB8631",
"6. c #BD8F37",
"7. c #C49339",
"8. c #C49938",
"9. c #D6A83F",
"0. c #9E8069",
"q. c #9D8172",
"w. c #A48466",
"e. c #A48575",
"r. c #A68878",
"t. c #AB8B7B",
"y. c #B08773",
"u. c #B89274",
"i. c #E1AF41",
"p. c #E3B241",
"a. c #EAB643",
"s. c #FDA677",
"d. c #B59382",
"f. c #B99685",
"g. c #BC9886",
"h. c #BF9C8A",
"j. c #C49F8C",
"k. c #C6A28E",
"l. c #DEA98F",
"z. c #DAA183",
"x. c #CCA592",
"c. c #CEA893",
"v. c #DAAD93",
"b. c #D6AD9A",
"n. c #D9AF9A",
"m. c #D4AC96",
"M. c #D7B099",
"N. c #DDB29D",
"B. c #FCAE85",
"V. c #E7B99F",
"C. c #E2B49F",
"Z. c #FFB994",
"A. c #FDBB99",
"S. c #DFB4A0",
"D. c #E3B7A2",
"F. c #E6BAA4",
"G. c #EABCA5",
"H. c #EDBEA9",
"J. c #EEC0AA",
"K. c #FBC1A5",
"L. c #F4C5AE",
"P. c #F8C7AE",
"I. c #F8C8AF",
"U. c #FFCDB5",
"Y. c #FECCB4",
"T. c #FFD1B7",
"R. c #FFD1B9",
/* pixels */
"                                                                                                    ",
"                                                                                                    ",
"                                                                                                    ",
"                                            O X & - - $ o X O                                       ",
"                                    O O O o w b m B B B m s u : o O                                 ",
"                            O o ; 3 r u w b G G J J G G G G G G b w o O                             ",
"                        O & w b V G G G G G G G J J G G G G G G G G b : O                           ",
"                      O : b G G G G G G G G G G G G G G G G G G G G G B w X                         ",
"                    O 2 B G G G G G G G G G G G G G G G G G G G G G J G G w O                       ",
"                    - M G G G G G G G G G G G G G G H H H H G G G G G G G V 2 O                     ",
"                  + p G G G G G G G G G G G G G G G G G G G G G G G G G G G m &                     ",
"                  2 G G G G G G G G G G G G G G G G G G G G G G G G G G G G G u X                   ",
"                o s G G G G G G b i M G G G G G G G G G G G G G G G G G G G G B -                   ",
"                ; V G G G G G B 2 h 5 i G G G G G G G G G G G G G G G G G G G G u +                 ",
"              O r G G B G G G e l v.y.f u G G G b u G G G G G G G G G G G p i G m &                 ",
"              X p G B 2 m G V 2 :.Z.Z.j.f i G G b o s G G G H b i G G G G p ; V G 2                 ",
"              o b G b - m G b y z.s.B.Y.f.5 b G B & $ M G G G i O i G G G n - m G i +               ",
"              & b p b - m G w T K.B.K.Y.Y.>.; B B ; l 2 M G G i t 5 b G G M ; b G b o               ",
"              o ; & s - n V : q.Y.A.Y.Y.Y.L.P w n 6 k.T ; m G u T =.; B G V ; s G m &               ",
"                O - b - b m 5 b.v.*.*.u.v.P.x.5 2 D L.J.Q ; p w k w.S w V M - p w w o               ",
"                  ; B ; i i F L.0.r r r N %.V.&.6 t.Y.Y.w.3 X - ; Y t.5 b b - b - O                 ",
"                  - B u ; 2 &.r.E r.x.f.W k N.L.S.Y.Y.Y.~ Z e.x.g.( / ^ ; 3 ; M -                   ",
"                  & m s O , ;.W F.L.t.x.I.=.>.Y.Y.Y.Y.x.R S.F.t.n.Y.>./ ( , 3 m &                   ",
"                  X i p g d./ g.Y.Q . 5 x.H.E F.Y.Y.Y.&.t.L.L . h D.L.W N.;.2 i X                   ",
"                    - w y ( F F.L.l . . t.Y.Q W &._ _ D N.F.6 . o k.R._ E K o o                     ",
"                    + X , >.L D.Y.q.t L F.Y.! -.t.r.e.L b.Y.=.6 W L.Y.) &.L - <                     ",
"                      D g c.&.t.R.Y.F.L.Y.n.E J.Y.Y.T.:.1.R.Y.F.L.Y.F.T N.P Q f                     ",
"                      f > _ m.T x.Y.R.Y.F.Q r.Y.Y.Y.Y.N.T h.Y.T.Y.J.( <.k., f                       ",
"                          > t.j.E _ 1.;.R q.Y.G.C.H.N.Y.x.W ( 1.;.E ,.M.F .                         ",
"                            > &.c.d.q.t.N.Y.Y.n._ / t.Y.Y.J.f.q.t.x.t.l O                           ",
"                              O h ( g.D.L.Y.Y.Y.L.H.Y.Y.Y.Y.H.x.,.F &                               ",
"                                O 8 c j F T / _ &.=._ ( W L l q x %                                 ",
"                                = ' 2.@.5.X.U C v v v I  .o.6.+.| 8                                 ",
"                                o ` [ @.8.8.7.O.] ] [ @.8.8.7.O.' 1                                 ",
"                                  . = $ ; 0 0 8 * 7 * $ $ $ $ $ X O                                 ",
"                                O . . . 1 { } ] 7 z @ - 3 X . . . O                                 ",
"                                . . . . 4 $.$.} 1 . . U 9.p . . . .                                 ",
"                                . . . . a 4.3.#.9 . . s  .; . . . .                                 ",
"                                . . . . b p.p.9.i . . . . . . . . . O                               ",
"                                & l t . b p.a.i.p . . . . . . & l 6 O                               ",
"                                , =.S . r  . ...2 . . . . . . < &.S                                 ",
"                                  . . . . . . . . . . . . . . . . O                                 ",
"                                  . . . o # # + . O O # # o O O O O                                 ",
"                                      + j A A d O   > A A A >                                       ",
"                                      . o # # + .   O # # o O                                       ",
"                                      . . . . . .   . . . . . O                                     ",
"                                    O . . . . . .   . . . . . O                                     ",
"                                                                                                    ",
"                                                                                                    ",
"                                                                                                    "
};
