/* XPM */
static char *b70aa55a0a794658ac42e7a7685995daBtW1bTtFLRzMEpou[] = {
/* columns rows colors chars-per-pixel */
"50 50 216 2 ",
"   c None",
".  c #37291A",
"X  c #3D2B1C",
"o  c #3B271A",
"O  c #3D2E20",
"+  c #422B1E",
"@  c #492E1E",
"#  c #5B381D",
"$  c #6A370E",
"%  c #6E390F",
"&  c #693C1B",
"*  c #733F14",
"=  c #733B0F",
"-  c #452F21",
";  c #4A2F22",
":  c #453424",
">  c #4A3525",
",  c #4A3A27",
"<  c #463728",
"1  c #4B3729",
"2  c #4C3A29",
"3  c #473827",
"4  c #523526",
"5  c #533B26",
"6  c #523729",
"7  c #543C2B",
"8  c #5C3E2B",
"9  c #593A25",
"0  c #4D3F33",
"q  c #573D30",
"w  c #5A3E30",
"e  c #613F2C",
"r  c #653F21",
"t  c #7A461A",
"y  c #56412B",
"u  c #5C412C",
"i  c #554236",
"p  c #5D4432",
"a  c #55443A",
"s  c #5D453A",
"d  c #5E4931",
"f  c #6D4424",
"g  c #62422D",
"h  c #6B452A",
"j  c #6D4C2D",
"k  c #62482F",
"l  c #724523",
"z  c #764A28",
"x  c #7D552E",
"c  c #644B33",
"v  c #6B4D33",
"b  c #60473A",
"n  c #624631",
"m  c #734E34",
"M  c #665236",
"N  c #6D5235",
"B  c #6C553A",
"V  c #6F5839",
"C  c #725233",
"Z  c #7B5535",
"A  c #7C5935",
"S  c #74543A",
"D  c #79573C",
"F  c #755A3C",
"G  c #7B5C3D",
"H  c #765836",
"J  c #7D603E",
"K  c #75613E",
"L  c #5C4C43",
"P  c #574C43",
"I  c #624E43",
"U  c #65544D",
"Y  c #755E40",
"T  c #7C5B42",
"R  c #785741",
"E  c #655754",
"W  c #766240",
"Q  c #7D6243",
"!  c #844815",
"~  c #8B521C",
"^  c #90541B",
"/  c #985B1D",
"(  c #845125",
")  c #945C23",
"_  c #9A5E21",
"`  c #915B27",
"'  c #845C35",
"]  c #825C3B",
"[  c #9C6324",
"{  c #9B662F",
"}  c #82613D",
"|  c #8A633B",
" . c #8A6236",
".. c #956A3C",
"X. c #9B6C3B",
"o. c #986837",
"O. c #A36423",
"+. c #A46924",
"@. c #AC6E26",
"#. c #A36C2A",
"$. c #AB6C2B",
"%. c #AF702A",
"&. c #B37227",
"*. c #BB772A",
"=. c #A56E37",
"-. c #AB7234",
";. c #A4733C",
":. c #A77437",
">. c #B47733",
",. c #B47A35",
"<. c #BC7D34",
"1. c #B27B3B",
"2. c #C37D2C",
"3. c #C87E2F",
"4. c #C57F32",
"5. c #825E44",
"6. c #846343",
"7. c #8A6643",
"8. c #8C6A45",
"9. c #8A6649",
"0. c #8C6C49",
"q. c #876746",
"w. c #936D45",
"e. c #916D4A",
"r. c #8F7149",
"t. c #957046",
"y. c #997346",
"u. c #9F7A47",
"i. c #95724B",
"p. c #9B754A",
"a. c #9D794D",
"s. c #977A4C",
"d. c #9C7B51",
"f. c #987752",
"g. c #A27C4D",
"h. c #A17746",
"j. c #A37E51",
"k. c #BA8236",
"l. c #BD8439",
"z. c #B8883F",
"x. c #CD852E",
"c. c #C58433",
"v. c #CC8532",
"b. c #CC8B35",
"n. c #C48D3B",
"m. c #CA8D39",
"M. c #C48839",
"N. c #D28B33",
"B. c #D88D36",
"V. c #CA943E",
"C. c #D2953A",
"Z. c #DB9739",
"A. c #DB9D3C",
"S. c #D19539",
"D. c #D78D2F",
"F. c #E29D39",
"G. c #DCA23E",
"H. c #E4A33D",
"J. c #E9A13B",
"K. c #9F8255",
"L. c #A5814E",
"P. c #AC8647",
"I. c #B68744",
"U. c #BE9049",
"Y. c #A58253",
"T. c #AA8552",
"R. c #AE8854",
"E. c #AD8C5B",
"W. c #A68659",
"Q. c #B18E5B",
"!. c #B18B56",
"~. c #AE925A",
"^. c #B3925E",
"/. c #BB9958",
"(. c #BDA35A",
"). c #AF8D62",
"_. c #B28F62",
"`. c #AF9260",
"'. c #B39363",
"]. c #B69A63",
"[. c #BD9D66",
"{. c #BA9A65",
"}. c #B89969",
"|. c #BE9E69",
" X c #BC9B69",
".X c #B89766",
"XX c #B9A161",
"oX c #C18F43",
"OX c #C59747",
"+X c #D69D40",
"@X c #DFAE4C",
"#X c #DBA342",
"$X c #C6A354",
"%X c #DCB351",
"&X c #E4AC43",
"*X c #E2A240",
"=X c #EBB64B",
"-X c #E9B84E",
";X c #F1BF4E",
":X c #E8BE55",
">X c #C19F6A",
",X c #C1A16A",
"<X c #C2A66B",
"1X c #C2A86B",
"2X c #C5A76B",
"3X c #C9B061",
"4X c #C5AB70",
"5X c #CAAD72",
"6X c #C9AD74",
"7X c #CCB275",
"8X c #CEB878",
"9X c #D1B77A",
"0X c #D3BC7C",
"qX c #EFCC5C",
"wX c #EAC357",
"eX c #DCC167",
/* pixels */
"                                                                                                    ",
"                                                                                                    ",
"                                                                                                    ",
"                                                                                                    ",
"                                                                                                    ",
"                                                                                                    ",
"                                        '.'.'.^.'.'.'.'.                                            ",
"                                `.^.'.].].].^.^.^.^.E.Y.i.      '.}.}.}.                            ",
"                          '.^.^.Q.E.E.E.E.Q.E.R.Y.g.a.a.Y..X X].'..X}..X.X'.'.'.'.'.).f.            ",
"                      0.p.j.Y.a.p.i.t.a.j.Y.Y.j.W.Q.].{.[.{.{..X.X.X.X'.E.E._.'.'.W.0.D D           ",
"        }.|.{.{.{.{..X'.E.E.E.E.E.E.Q.].{.{.{.{.{.{.{.].].'.^.E.Q.).)._.'.E.'.W.J c u 8 p I         ",
"      W.W.'.Q.Q.].[.[.,X<X,X,X|.[.{.].{.[.|.,X,X,X,X,X>X|.{.].'.'.}.|.'.K.r.0.n 8 8 u 8 8 p         ",
"      a.t.8.i.p.j.T.E.{.2X5X5X7X7X7X7X5X5X5X7X7X7X5X5X6X5X6X4X6X7X<XY.6.A v u 7 8 u u u 8 b U       ",
"      t.t.w.w.p.p.a.g.j.T.E.E.^./.[.,X{.,X5X9X0X0X0X8X4X4X7X<X7Xd.H v k 8 8 8 u u u 8 u 9 b         ",
"      t.t.t.i.p.p.p.p.a.g.j.Y.T.R.R.R.^.Q.<X2X[.1X].].].<X6X7XE.v 8 8 8 8 8 u u u 8 8 9 8 s         ",
"      w.w.p./.U.h.w.t.p.a.g.g.j.Y.T.T.Q.E.Q.R.R.!.^.[.1X7X9X].v 8 8 8 u 8 8 u u 8 8 8 9 w q         ",
"      8.t.OXA.H.#XOXP.u.y.y.p.p.g.g.L.Y.L.T.Y.R.R.R.].,X7X7XJ 8 8 g g g u u u u 8 8 9 8 7 6         ",
"      8.u.S.N.N.B.*X-X:X%X$X$X/.(.(.(.3XeXeX,.g.g.h.T.~.XXW.g 8 8 g g u u u u 8 8 8 9 7 4 7 s       ",
"      8.w.c.&.( -.4.N.Z.H.&X-X:XwXqXqX-X=X=Xb.$.p.h.g.L.1Xd.e 8 g g g u u u u 8 8 8 9 7 4 7 s       ",
"      7.8.<.O.h G ] o.-.<.b.S.C.A.G.A.S.V.&X=X2.{ a.g.a.].H 8 8 g g g u u u 8 8 8 7 7 6 7 7 s       ",
"      7.7.>.&.z e.L.t.G ] ' ' ..X.X...| Z n.;X+.( a.p.j.i.g g e g g g 8 u u 8 9 7 7 7 6 7 7 s       ",
"      8.6.=.2.( y.@X#.G 6.6.0.0.T.$Xg.7.] V.&Xt ] g.a.a.C 9 8 e g g g u u 8 9 6 7 7 6 6 7 7 L       ",
"      6.6.X.b.) | V.) Z D 6.e.e.I.#X` ] | #XC.* 7.j.a.H 5 @ > 9 8 e 8 8 9 7 6 6 7 7 6 7 7 q I       ",
"      A 6...N.O.' n.) m T G 5.9.I.*.t D ..&X#.& 7.8.A 8.F 9 4 > 4 6 6 4 4 6 7 7 6 > 6 7 7 q U       ",
"      N G ..b.@.Z l._ Z 9.7.5.5.I.&.t G ;.&X! & H 8.s.~.i.9 u 9 4 > + + > > 6 6 - > 7 7 7 i U       ",
"      C N  .b.@.z l.[ Z 9.9.9.5.z.@.l T I.J.! r ] y.a.E.K 9 9 9 u y 5 + + + + + + 1 7 7 2 a E       ",
"      } H A m.+.h ,.+.x 6.6.9.6.oX@.l T oXD.= j t.i.d.s.c 7 7 9 7 u u 7 > + o o + 6 7 7 2 a E       ",
"      F F } m.[ j ,.m.OXOXP.p.w.OX@.l D M.x.% C i.i.d.i.c 7 7 7 y u y 7 7 1 - o X > 7 7 2 s U       ",
"      J G | m.) m :.@.~ [ #.l.V.@X+.l D l.x.$ C e.i.f.0.n 7 7 y y y 7 7 7 7 2 + o + > 7 7 i L       ",
"      6.} | M.^ m ;.O.# h f f t @._ h S <.x.$ C 8.i.a.Q u 7 7 y 7 y y 7 7 7 7 > : - X : 1 2         ",
"      6.6.| c.~ S ;.+.f 6.5.6.D k./ h v l.x.$ j 8.i.i.G v 7 7 y y 5 7 7 7 7 2 1 2 2 1 > > :         ",
"      G } ..c.t D ;.@.f T 5.5.D l.~ h T I.x.% 9 6.e.8.8.N 7 7 7 7 7 7 7 7 7 2 1 2 2 2 2 2 2         ",
"      A G X.<.t T X.&.l T T S C k.~ m 6.1.x.* # H 8.6.8.n 7 7 7 7 7 7 7 2 2 2 , 2 2 1 1 1 2 P       ",
"      A A 1.@.r T ] z f R S S D >.! S T ;.v.t # v 6.q.q.u 7 7 7 7 7 2 2 2 2 1 1 2 2 , 1 1 2 P       ",
"      D } m.%.l D Z m C S D T G l & D T ..v.^ # v G q.q.p 2 2 7 2 1 1 1 2 2 1 2 2 1 1 1 1 2 a       ",
"      H ] <.N.2.c.b.c.c.k.,.:...' S D R ] c.O.& v H q.8.n 2 2 2 1 1 1 1 1 1 1 2 2 > 1 1 1 2 a       ",
"      S H ' <.N.C.m.<.4.v.Z.J.F.A.n.;.| S -.*.t v F Q q.c 1 1 2 1 1 2 1 1 , , , , : , , 1 2 a       ",
"      N D H A  .' H H A ' o.-.>.c.b.A.+Xo.` *.^ f Y Y q.c 1 1 1 2 2 2 , > > , 3 : > , , 1 2 0       ",
"      G G H H S H D G G G H S H Z ' { >.4.4.3._ h Y Q Q c 2 2 2 2 2 2 , , : : : : , , : 1 2         ",
"      v H G G G G G G G G F F H F F N j x #.{ j F Q 6.M 7 > > > , , , : : X : : : 3 < <             ",
"        u k k c v N S H F F H H F G G B B N N F Q Q Y d u : : > , , : : : . X : <                   ",
"                : : > 5 u n v N F F G G F F K W Q Y c B B 1 1 1 1 1 > > : .                         ",
"                          > 7 u n N V F F F K W Y p M B c 2 1 1 1 1 : : :                           ",
"                                      2 d M M M y y B c y 2 2 1 < : O                               ",
"                                                . y c 2 : : : <                                     ",
"                                                                                                    ",
"                                                                                                    ",
"                                                                                                    ",
"                                                                                                    ",
"                                                                                                    "
};
